<svg id="图层_1" data-name="图层 1" xmlns="http://www.w3.org/2000/svg" xmlns:xlink="http://www.w3.org/1999/xlink" viewBox="0 0 850.38 174.92"><defs><style>.cls-1,.cls-2,.cls-23,.cls-24,.cls-3{fill:none;}.cls-2{clip-rule:evenodd;}.cls-22,.cls-26,.cls-27,.cls-3{fill-rule:evenodd;}.cls-4{clip-path:url(#clip-path);}.cls-5{fill:url(#未命名的渐变);}.cls-6{fill:url(#未命名的渐变_2);}.cls-7{fill:url(#未命名的渐变_3);}.cls-8{fill:url(#未命名的渐变_4);}.cls-9{fill:url(#未命名的渐变_5);}.cls-10{fill:url(#未命名的渐变_6);}.cls-11{fill:url(#未命名的渐变_7);}.cls-12{fill:url(#未命名的渐变_8);}.cls-13{clip-path:url(#clip-path-5);}.cls-14{clip-path:url(#clip-path-6);}.cls-15,.cls-22{fill:#fff;opacity:0.2;}.cls-16{clip-path:url(#clip-path-7);}.cls-17{clip-path:url(#clip-path-8);}.cls-18{clip-path:url(#clip-path-9);}.cls-19{clip-path:url(#clip-path-10);}.cls-20{clip-path:url(#clip-path-11);}.cls-21{clip-path:url(#clip-path-12);}.cls-23,.cls-24{stroke:#fff;stroke-miterlimit:10;}.cls-23{stroke-width:0.48px;}.cls-23,.cls-26,.cls-27{opacity:0.2;}.cls-24{stroke-width:1.02px;opacity:0.1;}.cls-25{clip-path:url(#clip-path-13);}.cls-26{fill:#5b9bd5;}.cls-27{fill:#3d96c7;}</style><clipPath id="clip-path" transform="translate(0 1.14)"><rect class="cls-1" width="850.38" height="170.1"/></clipPath><linearGradient id="未命名的渐变" x1="452.56" y1="-69.02" x2="397.82" y2="241.4" gradientUnits="userSpaceOnUse"><stop offset="0" stop-color="#0070c0"/><stop offset="0.74" stop-color="#abc0e4"/><stop offset="0.83" stop-color="#abc0e4"/><stop offset="1" stop-color="#c7d5ed"/></linearGradient><linearGradient id="未命名的渐变_2" x1="532.54" y1="-88.25" x2="737.89" y2="104.05" gradientUnits="userSpaceOnUse"><stop offset="0" stop-color="#c7d5ed"/><stop offset="0.09" stop-color="#abc0e4"/><stop offset="0.13" stop-color="#abc0e4"/><stop offset="0.5" stop-color="#f6f8fc"/><stop offset="0.87" stop-color="#abc0e4"/><stop offset="0.92" stop-color="#abc0e4"/><stop offset="1" stop-color="#c7d5ed"/></linearGradient><linearGradient id="未命名的渐变_3" x1="544.54" y1="-76.25" x2="749.89" y2="116.05" xlink:href="#未命名的渐变_2"/><linearGradient id="未命名的渐变_4" x1="556.54" y1="-64.25" x2="761.89" y2="128.05" xlink:href="#未命名的渐变_2"/><linearGradient id="未命名的渐变_5" x1="568.54" y1="-52.25" x2="773.89" y2="140.05" xlink:href="#未命名的渐变_2"/><linearGradient id="未命名的渐变_6" x1="580.54" y1="-40.25" x2="785.89" y2="152.05" xlink:href="#未命名的渐变_2"/><linearGradient id="未命名的渐变_7" x1="592.54" y1="-28.25" x2="797.89" y2="164.05" xlink:href="#未命名的渐变_2"/><linearGradient id="未命名的渐变_8" x1="604.54" y1="-16.25" x2="809.89" y2="176.06" xlink:href="#未命名的渐变_2"/><clipPath id="clip-path-5" transform="translate(0 1.14)"><rect class="cls-1" x="413.64" y="12.66" width="31.2" height="31.2"/></clipPath><clipPath id="clip-path-6" transform="translate(0 1.14)"><rect class="cls-1" x="413.64" y="12.66" width="31.2" height="31.2"/></clipPath><clipPath id="clip-path-7" transform="translate(0 1.14)"><rect class="cls-1" x="433.74" y="96.06" width="14.16" height="14.16"/></clipPath><clipPath id="clip-path-8" transform="translate(0 1.14)"><rect class="cls-1" x="433.74" y="96.06" width="14.16" height="14.16"/></clipPath><clipPath id="clip-path-9" transform="translate(0 1.14)"><rect class="cls-1" x="370.08" y="110.7" width="14.16" height="14.16"/></clipPath><clipPath id="clip-path-10" transform="translate(0 1.14)"><rect class="cls-1" x="370.08" y="110.7" width="14.16" height="14.16"/></clipPath><clipPath id="clip-path-11" transform="translate(0 1.14)"><rect class="cls-1" x="352.32" y="62.22" width="14.22" height="14.16"/></clipPath><clipPath id="clip-path-12" transform="translate(0 1.14)"><rect class="cls-1" x="352.32" y="62.22" width="14.22" height="14.16"/></clipPath><clipPath id="clip-path-13" transform="translate(0 1.14)"><polyline class="cls-2" points="0 0 850.38 0 850.38 170.1 0 170.1"/></clipPath></defs><title>background</title><g class="cls-4"><g class="cls-4"><rect class="cls-5" y="1.14" width="850.38" height="170.1"/></g><g class="cls-4"><polygon class="cls-6" points="642.6 101.98 649.86 98.75 657.08 95.52 657.07 95.52 664.21 92.29 664.21 92.29 671.24 89.06 671.24 89.07 678.11 85.84 678.11 85.84 684.79 82.61 684.79 82.61 688.05 81 688.05 81 691.25 79.39 691.24 79.39 694.38 77.78 694.38 77.78 697.44 76.17 697.43 76.17 700.42 74.56 700.41 74.56 703.32 72.96 703.31 72.96 706.13 71.35 706.13 71.35 708.86 69.75 708.85 69.75 711.49 68.14 711.48 68.15 714.02 66.54 714.01 66.55 716.44 64.94 716.43 64.94 718.75 63.34 718.74 63.34 720.95 61.74 720.94 61.75 723.03 60.15 723.02 60.16 724.99 58.55 724.98 58.57 726.82 56.96 726.81 56.98 728.51 55.38 728.5 55.39 730.07 53.79 730.05 53.81 731.48 52.21 731.46 52.23 732.75 50.64 732.73 50.65 733.32 49.85 733.31 49.87 733.86 49.07 733.85 49.09 734.36 48.29 734.35 48.3 734.82 47.51 734.82 47.52 735.25 46.72 735.25 46.74 735.65 45.94 735.64 45.96 736.01 45.16 736 45.18 736.34 44.38 736.33 44.4 736.63 43.61 736.63 43.62 736.9 42.82 736.9 42.84 737.13 42.05 737.13 42.07 737.33 41.28 737.33 41.29 737.51 40.5 737.5 40.52 737.65 39.72 737.65 39.74 737.76 38.94 737.76 38.96 737.85 38.17 737.85 38.19 737.9 37.4 737.9 37.41 737.94 36.62 737.94 36.64 737.94 35.84 737.94 35.86 737.92 35.07 737.92 35.09 737.87 34.3 737.87 34.31 737.8 33.52 737.8 33.53 737.7 32.74 737.7 32.76 737.58 31.97 737.58 31.98 737.43 31.19 737.43 31.2 737.26 30.41 737.27 30.43 736.86 28.85 736.87 28.87 736.38 27.29 736.38 27.31 735.81 25.73 735.82 25.75 735.17 24.17 735.18 24.19 734.46 22.61 734.47 22.63 733.68 21.05 733.69 21.06 732.84 19.48 732.85 19.49 731.94 17.92 731.95 17.93 730.99 16.35 731 16.36 729.99 14.78 730 14.79 728.95 13.21 728.96 13.22 727.87 11.64 727.88 11.65 726.76 10.07 726.76 10.08 725.62 8.5 724.45 6.93 722.06 3.78 719.63 0.63 720.44 0 722.87 3.16 725.27 6.32 726.44 7.9 727.59 9.48 728.71 11.06 729.8 12.64 730.85 14.23 731.86 15.81 732.83 17.4 733.74 18.99 734.59 20.59 735.39 22.18 736.11 23.77 736.77 25.38 737.35 26.98 737.85 28.58 738.26 30.19 738.43 30.99 738.59 31.8 738.71 32.61 738.81 33.41 738.89 34.22 738.94 35.03 738.96 35.84 738.96 36.65 738.92 37.46 738.86 38.27 738.77 39.08 738.65 39.9 738.5 40.71 738.32 41.52 738.11 42.33 737.87 43.15 737.59 43.96 737.28 44.77 736.94 45.59 736.56 46.4 736.15 47.21 735.7 48.02 735.22 48.83 734.7 49.64 734.14 50.45 733.55 51.27 732.25 52.88 730.8 54.5 729.22 56.11 727.5 57.73 725.64 59.34 723.66 60.95 721.56 62.56 719.34 64.17 717.01 65.79 714.57 67.4 712.02 69.01 709.38 70.62 706.64 72.23 703.81 73.85 700.9 75.46 697.91 77.07 694.85 78.69 691.71 80.3 688.51 81.91 685.24 83.53 678.55 86.76 671.67 89.99 664.64 93.22 657.49 96.45 650.27 99.68 643.02 102.92 642.6 101.98"/></g><polygon class="cls-7" points="654.6 113.98 661.86 110.75 669.08 107.52 669.07 107.52 676.21 104.29 676.21 104.29 683.24 101.06 683.24 101.07 690.11 97.84 690.11 97.84 696.79 94.61 696.79 94.61 700.05 93 700.05 93 703.25 91.39 703.24 91.39 706.38 89.78 706.38 89.78 709.44 88.17 709.43 88.17 712.42 86.56 712.41 86.56 715.32 84.96 715.31 84.96 718.13 83.35 718.13 83.35 720.86 81.75 720.85 81.75 723.49 80.14 723.48 80.14 726.02 78.54 726.01 78.55 728.44 76.94 728.43 76.94 730.75 75.34 730.74 75.34 732.95 73.74 732.94 73.75 735.03 72.15 735.02 72.16 736.99 70.55 736.98 70.57 738.82 68.96 738.81 68.98 740.51 67.38 740.5 67.39 742.07 65.79 742.05 65.81 743.48 64.21 743.46 64.23 744.75 62.64 744.73 62.65 745.32 61.85 745.31 61.87 745.86 61.07 745.85 61.09 746.36 60.29 746.35 60.3 746.82 59.51 746.82 59.52 747.25 58.72 747.25 58.74 747.65 57.94 747.64 57.96 748.01 57.16 748 57.18 748.34 56.38 748.33 56.4 748.63 55.61 748.63 55.62 748.9 54.82 748.9 54.84 749.13 54.05 749.13 54.07 749.33 53.28 749.33 53.29 749.51 52.5 749.5 52.52 749.65 51.72 749.65 51.74 749.76 50.94 749.76 50.96 749.85 50.17 749.85 50.19 749.9 49.4 749.9 49.41 749.94 48.62 749.94 48.64 749.94 47.84 749.94 47.86 749.92 47.07 749.92 47.09 749.87 46.3 749.87 46.31 749.8 45.52 749.8 45.53 749.7 44.74 749.7 44.76 749.58 43.97 749.58 43.98 749.43 43.19 749.43 43.2 749.26 42.41 749.27 42.43 748.86 40.85 748.87 40.87 748.38 39.29 748.38 39.31 747.81 37.73 747.82 37.75 747.17 36.17 747.18 36.19 746.46 34.61 746.47 34.63 745.68 33.05 745.69 33.06 744.84 31.48 744.85 31.49 743.94 29.92 743.95 29.93 742.99 28.35 743 28.36 741.99 26.78 742 26.79 740.95 25.21 740.96 25.22 739.87 23.64 739.88 23.65 738.76 22.07 738.76 22.08 737.62 20.5 736.45 18.93 734.06 15.78 731.63 12.63 732.44 12 734.87 15.16 737.27 18.32 738.44 19.9 739.59 21.48 740.71 23.06 741.8 24.64 742.85 26.23 743.86 27.81 744.83 29.4 745.74 30.99 746.59 32.59 747.39 34.18 748.11 35.77 748.77 37.38 749.35 38.98 749.85 40.58 750.26 42.19 750.43 42.99 750.59 43.8 750.71 44.61 750.81 45.41 750.89 46.22 750.94 47.03 750.96 47.84 750.96 48.65 750.92 49.46 750.86 50.27 750.77 51.08 750.65 51.9 750.5 52.71 750.32 53.52 750.11 54.33 749.87 55.15 749.59 55.96 749.28 56.77 748.94 57.59 748.56 58.4 748.15 59.21 747.7 60.02 747.22 60.83 746.7 61.64 746.14 62.45 745.55 63.27 744.25 64.88 742.8 66.5 741.22 68.11 739.5 69.73 737.64 71.34 735.66 72.95 733.56 74.56 731.34 76.17 729.01 77.78 726.57 79.4 724.02 81.01 721.38 82.62 718.64 84.23 715.81 85.85 712.9 87.46 709.91 89.07 706.85 90.69 703.71 92.3 700.51 93.91 697.24 95.53 690.55 98.76 683.67 101.99 676.64 105.22 669.49 108.45 662.27 111.68 655.02 114.92 654.6 113.98"/><polygon class="cls-8" points="666.6 125.98 673.86 122.75 681.08 119.52 681.07 119.52 688.21 116.29 688.21 116.29 695.24 113.06 695.24 113.07 702.11 109.84 702.11 109.84 708.79 106.61 708.79 106.61 712.05 105 712.05 105 715.25 103.39 715.24 103.39 718.38 101.78 718.38 101.78 721.44 100.17 721.43 100.17 724.42 98.56 724.41 98.56 727.32 96.96 727.31 96.96 730.13 95.35 730.13 95.35 732.86 93.75 732.85 93.75 735.49 92.14 735.48 92.14 738.02 90.54 738.01 90.55 740.44 88.94 740.43 88.94 742.75 87.34 742.74 87.34 744.95 85.74 744.94 85.75 747.03 84.15 747.02 84.16 748.99 82.55 748.98 82.56 750.82 80.96 750.81 80.98 752.51 79.38 752.5 79.39 754.07 77.79 754.05 77.81 755.48 76.21 755.46 76.23 756.75 74.64 756.73 74.65 757.32 73.86 757.31 73.87 757.86 73.07 757.85 73.09 758.36 72.29 758.35 72.3 758.82 71.5 758.82 71.52 759.25 70.72 759.25 70.74 759.65 69.94 759.64 69.96 760.01 69.16 760 69.18 760.34 68.38 760.33 68.4 760.63 67.61 760.63 67.62 760.9 66.82 760.9 66.84 761.13 66.05 761.13 66.07 761.33 65.28 761.33 65.29 761.51 64.5 761.5 64.52 761.65 63.72 761.65 63.74 761.76 62.94 761.76 62.96 761.85 62.17 761.85 62.19 761.9 61.4 761.9 61.41 761.94 60.62 761.94 60.64 761.94 59.84 761.94 59.86 761.92 59.07 761.92 59.09 761.87 58.3 761.87 58.31 761.8 57.52 761.8 57.53 761.7 56.74 761.7 56.76 761.58 55.97 761.58 55.98 761.43 55.19 761.43 55.2 761.26 54.41 761.27 54.43 760.86 52.85 760.87 52.87 760.38 51.29 760.38 51.31 759.81 49.73 759.82 49.75 759.17 48.17 759.18 48.19 758.46 46.61 758.47 46.63 757.68 45.05 757.69 45.06 756.84 43.48 756.85 43.49 755.94 41.92 755.95 41.93 754.99 40.35 755 40.36 753.99 38.78 754 38.79 752.95 37.21 752.96 37.22 751.87 35.64 751.88 35.65 750.76 34.07 750.76 34.08 749.62 32.5 748.45 30.93 746.06 27.78 743.63 24.63 744.44 24 746.87 27.16 749.27 30.32 750.44 31.9 751.59 33.48 752.71 35.06 753.8 36.64 754.85 38.23 755.86 39.81 756.83 41.4 757.74 42.99 758.59 44.59 759.39 46.18 760.11 47.77 760.77 49.38 761.35 50.98 761.85 52.58 762.26 54.19 762.43 54.99 762.59 55.8 762.71 56.61 762.81 57.41 762.89 58.22 762.94 59.03 762.96 59.84 762.96 60.65 762.92 61.46 762.86 62.27 762.77 63.08 762.65 63.9 762.5 64.71 762.32 65.52 762.11 66.33 761.87 67.15 761.59 67.96 761.28 68.77 760.94 69.59 760.56 70.4 760.15 71.21 759.7 72.02 759.22 72.83 758.7 73.64 758.14 74.45 757.55 75.27 756.25 76.88 754.8 78.5 753.22 80.11 751.5 81.73 749.64 83.34 747.66 84.95 745.56 86.56 743.34 88.17 741.01 89.78 738.57 91.4 736.02 93.01 733.38 94.62 730.64 96.23 727.81 97.85 724.9 99.46 721.91 101.07 718.85 102.69 715.71 104.3 712.51 105.91 709.24 107.53 702.55 110.76 695.67 113.99 688.64 117.22 681.49 120.45 674.27 123.68 667.02 126.92 666.6 125.98"/><polygon class="cls-9" points="678.6 137.98 685.86 134.75 693.08 131.52 693.07 131.52 700.21 128.29 700.21 128.29 707.24 125.06 707.24 125.07 714.11 121.84 714.11 121.84 720.79 118.61 720.79 118.61 724.05 117 724.05 117 727.25 115.39 727.24 115.39 730.38 113.78 730.38 113.78 733.44 112.17 733.43 112.17 736.42 110.56 736.41 110.56 739.32 108.96 739.31 108.96 742.13 107.35 742.13 107.35 744.86 105.75 744.85 105.75 747.49 104.14 747.48 104.14 750.02 102.54 750.01 102.55 752.44 100.94 752.43 100.94 754.75 99.34 754.74 99.34 756.95 97.74 756.94 97.75 759.03 96.15 759.02 96.16 760.99 94.55 760.98 94.56 762.82 92.96 762.81 92.98 764.51 91.38 764.5 91.39 766.07 89.79 766.05 89.81 767.48 88.21 767.46 88.23 768.75 86.64 768.73 86.65 769.32 85.86 769.31 85.87 769.86 85.07 769.85 85.09 770.36 84.29 770.35 84.3 770.82 83.5 770.82 83.52 771.25 82.72 771.25 82.74 771.65 81.94 771.64 81.96 772.01 81.16 772 81.18 772.34 80.38 772.33 80.4 772.63 79.61 772.63 79.62 772.9 78.82 772.9 78.84 773.13 78.05 773.13 78.07 773.33 77.28 773.33 77.29 773.51 76.5 773.5 76.52 773.65 75.72 773.65 75.74 773.76 74.94 773.76 74.96 773.85 74.17 773.85 74.19 773.9 73.4 773.9 73.41 773.94 72.62 773.94 72.64 773.94 71.84 773.94 71.86 773.92 71.07 773.92 71.09 773.87 70.3 773.87 70.31 773.8 69.52 773.8 69.53 773.7 68.74 773.7 68.76 773.58 67.97 773.58 67.98 773.43 67.19 773.43 67.2 773.26 66.41 773.27 66.43 772.86 64.85 772.87 64.87 772.38 63.29 772.38 63.31 771.81 61.73 771.82 61.75 771.17 60.17 771.18 60.19 770.46 58.61 770.47 58.63 769.68 57.05 769.69 57.06 768.84 55.48 768.85 55.49 767.94 53.92 767.95 53.93 766.99 52.35 767 52.36 765.99 50.78 766 50.79 764.95 49.21 764.96 49.22 763.87 47.64 763.88 47.65 762.76 46.07 762.76 46.08 761.62 44.5 760.45 42.93 758.06 39.78 755.63 36.63 756.44 36 758.87 39.16 761.27 42.32 762.44 43.9 763.59 45.48 764.71 47.06 765.8 48.64 766.85 50.23 767.86 51.81 768.83 53.4 769.74 54.99 770.59 56.59 771.39 58.18 772.11 59.77 772.77 61.38 773.35 62.98 773.85 64.58 774.26 66.19 774.43 66.99 774.59 67.8 774.71 68.61 774.81 69.41 774.89 70.22 774.94 71.03 774.96 71.84 774.96 72.65 774.92 73.46 774.86 74.27 774.77 75.08 774.65 75.9 774.5 76.71 774.32 77.52 774.11 78.33 773.87 79.15 773.59 79.96 773.28 80.77 772.94 81.59 772.56 82.4 772.15 83.21 771.7 84.02 771.22 84.83 770.7 85.64 770.14 86.45 769.55 87.27 768.25 88.88 766.8 90.5 765.22 92.11 763.5 93.73 761.64 95.34 759.66 96.95 757.56 98.56 755.34 100.17 753.01 101.78 750.57 103.4 748.02 105.01 745.38 106.62 742.64 108.23 739.81 109.85 736.9 111.46 733.91 113.07 730.85 114.69 727.71 116.3 724.51 117.91 721.24 119.53 714.55 122.76 707.67 125.99 700.64 129.22 693.49 132.45 686.27 135.68 679.02 138.92 678.6 137.98"/><polygon class="cls-10" points="690.6 149.98 697.86 146.75 705.08 143.52 705.07 143.52 712.21 140.29 712.21 140.29 719.24 137.06 719.24 137.07 726.11 133.84 726.11 133.84 732.79 130.61 732.79 130.61 736.05 129 736.05 129 739.25 127.39 739.24 127.39 742.38 125.78 742.38 125.78 745.44 124.17 745.43 124.17 748.42 122.56 748.41 122.56 751.32 120.96 751.31 120.96 754.13 119.35 754.13 119.35 756.86 117.75 756.85 117.75 759.49 116.14 759.48 116.14 762.02 114.54 762.01 114.55 764.44 112.94 764.43 112.94 766.75 111.34 766.74 111.34 768.95 109.74 768.94 109.75 771.03 108.15 771.02 108.16 772.99 106.55 772.98 106.56 774.82 104.96 774.81 104.98 776.51 103.38 776.5 103.39 778.07 101.79 778.05 101.81 779.48 100.21 779.46 100.23 780.75 98.64 780.73 98.65 781.32 97.86 781.31 97.87 781.86 97.07 781.85 97.09 782.36 96.29 782.35 96.3 782.82 95.5 782.82 95.52 783.25 94.72 783.25 94.74 783.65 93.94 783.64 93.96 784.01 93.16 784 93.18 784.34 92.38 784.33 92.4 784.63 91.61 784.63 91.62 784.9 90.82 784.9 90.84 785.13 90.05 785.13 90.07 785.33 89.28 785.33 89.29 785.51 88.5 785.5 88.52 785.65 87.72 785.65 87.74 785.76 86.94 785.76 86.96 785.85 86.17 785.85 86.19 785.9 85.4 785.9 85.41 785.94 84.62 785.94 84.64 785.94 83.84 785.94 83.86 785.92 83.07 785.92 83.09 785.87 82.3 785.87 82.31 785.8 81.52 785.8 81.53 785.7 80.74 785.7 80.76 785.58 79.97 785.58 79.98 785.43 79.19 785.43 79.2 785.26 78.41 785.27 78.43 784.86 76.85 784.87 76.87 784.38 75.29 784.38 75.31 783.81 73.73 783.82 73.75 783.17 72.17 783.18 72.19 782.46 70.61 782.47 70.63 781.68 69.05 781.69 69.06 780.84 67.48 780.85 67.49 779.94 65.92 779.95 65.93 778.99 64.35 779 64.36 777.99 62.78 778 62.79 776.95 61.21 776.96 61.22 775.87 59.64 775.88 59.65 774.76 58.07 774.76 58.08 773.62 56.5 772.45 54.93 770.06 51.78 767.63 48.63 768.44 48 770.87 51.16 773.27 54.32 774.44 55.9 775.59 57.48 776.71 59.06 777.8 60.64 778.85 62.23 779.86 63.81 780.83 65.4 781.74 66.99 782.59 68.59 783.39 70.18 784.11 71.78 784.77 73.38 785.35 74.98 785.85 76.58 786.26 78.19 786.43 78.99 786.59 79.8 786.71 80.61 786.81 81.41 786.89 82.22 786.94 83.03 786.96 83.84 786.96 84.65 786.92 85.46 786.86 86.27 786.77 87.08 786.65 87.9 786.5 88.71 786.32 89.52 786.11 90.33 785.87 91.15 785.59 91.96 785.28 92.77 784.94 93.59 784.56 94.4 784.15 95.21 783.7 96.02 783.22 96.83 782.7 97.64 782.14 98.45 781.55 99.27 780.25 100.88 778.8 102.5 777.22 104.11 775.5 105.73 773.64 107.34 771.66 108.95 769.56 110.56 767.34 112.17 765.01 113.78 762.57 115.4 760.02 117.01 757.38 118.62 754.64 120.23 751.81 121.85 748.9 123.46 745.91 125.07 742.85 126.69 739.71 128.3 736.51 129.91 733.24 131.53 726.55 134.76 719.67 137.99 712.64 141.22 705.49 144.45 698.27 147.68 691.02 150.92 690.6 149.98"/><polygon class="cls-11" points="702.6 161.98 709.86 158.75 717.08 155.52 717.07 155.52 724.21 152.29 724.21 152.29 731.24 149.06 731.24 149.07 738.11 145.84 738.11 145.84 744.79 142.61 744.79 142.61 748.05 141 748.05 141 751.25 139.39 751.24 139.39 754.38 137.78 754.38 137.78 757.44 136.17 757.43 136.18 760.42 134.56 760.41 134.56 763.32 132.96 763.31 132.96 766.13 131.35 766.13 131.35 768.86 129.75 768.85 129.75 771.49 128.14 771.48 128.15 774.02 126.54 774.01 126.55 776.44 124.94 776.43 124.94 778.75 123.34 778.74 123.34 780.95 121.74 780.94 121.75 783.03 120.15 783.02 120.16 784.99 118.55 784.98 118.56 786.82 116.96 786.81 116.98 788.51 115.38 788.5 115.39 790.07 113.79 790.05 113.81 791.48 112.21 791.46 112.23 792.75 110.64 792.73 110.65 793.32 109.86 793.31 109.87 793.86 109.07 793.85 109.09 794.36 108.29 794.35 108.3 794.82 107.5 794.82 107.52 795.25 106.72 795.25 106.74 795.65 105.94 795.64 105.96 796.01 105.16 796 105.18 796.34 104.38 796.33 104.4 796.63 103.61 796.63 103.62 796.9 102.82 796.9 102.84 797.13 102.05 797.13 102.07 797.33 101.28 797.33 101.29 797.51 100.5 797.5 100.52 797.65 99.72 797.65 99.74 797.76 98.94 797.76 98.96 797.85 98.17 797.85 98.19 797.9 97.4 797.9 97.41 797.94 96.62 797.94 96.64 797.94 95.84 797.94 95.86 797.92 95.07 797.92 95.09 797.87 94.3 797.87 94.31 797.8 93.52 797.8 93.53 797.7 92.74 797.7 92.76 797.58 91.97 797.58 91.98 797.43 91.19 797.43 91.2 797.26 90.41 797.27 90.43 796.86 88.85 796.87 88.87 796.38 87.29 796.38 87.31 795.81 85.73 795.82 85.75 795.17 84.17 795.18 84.19 794.46 82.61 794.47 82.63 793.68 81.05 793.69 81.06 792.84 79.48 792.85 79.5 791.94 77.92 791.95 77.93 790.99 76.35 791 76.36 789.99 74.78 790 74.79 788.95 73.21 788.96 73.22 787.87 71.64 787.88 71.65 786.76 70.07 786.76 70.08 785.62 68.5 784.45 66.93 782.06 63.78 779.63 60.63 780.44 60 782.87 63.16 785.27 66.32 786.44 67.9 787.59 69.48 788.71 71.06 789.8 72.64 790.85 74.23 791.86 75.81 792.83 77.4 793.74 78.99 794.59 80.59 795.39 82.18 796.11 83.78 796.77 85.38 797.35 86.98 797.85 88.58 798.26 90.19 798.43 90.99 798.59 91.8 798.71 92.61 798.81 93.41 798.89 94.22 798.94 95.03 798.96 95.84 798.96 96.65 798.92 97.46 798.86 98.27 798.77 99.08 798.65 99.9 798.5 100.71 798.32 101.52 798.11 102.33 797.87 103.15 797.59 103.96 797.28 104.77 796.94 105.59 796.56 106.4 796.15 107.21 795.7 108.02 795.22 108.83 794.7 109.64 794.14 110.45 793.55 111.27 792.25 112.88 790.8 114.5 789.22 116.11 787.5 117.73 785.64 119.34 783.66 120.95 781.56 122.56 779.34 124.17 777.01 125.78 774.57 127.4 772.02 129.01 769.38 130.62 766.64 132.24 763.81 133.85 760.9 135.46 757.91 137.07 754.85 138.69 751.71 140.3 748.51 141.91 745.24 143.53 738.55 146.76 731.67 149.99 724.64 153.22 717.49 156.45 710.27 159.68 703.02 162.92 702.6 161.98"/><g class="cls-4"><polygon class="cls-12" points="714.6 173.98 721.86 170.75 729.08 167.52 729.07 167.52 736.21 164.29 736.21 164.29 743.24 161.06 743.24 161.07 750.11 157.84 750.11 157.84 756.79 154.61 756.79 154.61 760.05 153 760.05 153 763.25 151.39 763.24 151.39 766.38 149.78 766.38 149.78 769.44 148.17 769.43 148.18 772.42 146.56 772.41 146.56 775.32 144.96 775.31 144.96 778.13 143.35 778.13 143.35 780.86 141.75 780.85 141.75 783.49 140.14 783.48 140.15 786.02 138.54 786.01 138.55 788.44 136.94 788.43 136.94 790.75 135.34 790.74 135.34 792.95 133.74 792.94 133.75 795.03 132.15 795.02 132.16 796.99 130.55 796.98 130.56 798.82 128.96 798.81 128.98 800.51 127.38 800.5 127.39 802.07 125.79 802.05 125.81 803.48 124.21 803.46 124.23 804.75 122.64 804.73 122.65 805.32 121.86 805.31 121.87 805.86 121.07 805.85 121.09 806.36 120.29 806.35 120.3 806.82 119.5 806.82 119.52 807.25 118.72 807.25 118.74 807.65 117.94 807.64 117.96 808.01 117.16 808 117.18 808.34 116.38 808.33 116.4 808.63 115.61 808.63 115.62 808.9 114.82 808.9 114.84 809.13 114.05 809.13 114.07 809.33 113.28 809.33 113.29 809.51 112.5 809.5 112.52 809.65 111.72 809.65 111.74 809.76 110.94 809.76 110.96 809.85 110.17 809.85 110.19 809.9 109.4 809.9 109.41 809.94 108.62 809.94 108.64 809.94 107.84 809.94 107.86 809.92 107.07 809.92 107.09 809.87 106.3 809.87 106.31 809.8 105.52 809.8 105.53 809.7 104.74 809.7 104.76 809.58 103.97 809.58 103.98 809.43 103.19 809.43 103.2 809.26 102.41 809.27 102.43 808.86 100.85 808.87 100.87 808.38 99.29 808.38 99.31 807.81 97.73 807.82 97.75 807.17 96.17 807.18 96.19 806.46 94.61 806.47 94.63 805.68 93.05 805.69 93.06 804.84 91.48 804.85 91.5 803.94 89.92 803.95 89.93 802.99 88.35 803 88.36 801.99 86.78 802 86.79 800.95 85.21 800.96 85.22 799.87 83.64 799.88 83.65 798.76 82.07 798.76 82.08 797.62 80.5 797.62 80.5 796.45 78.93 796.45 78.93 794.06 75.78 794.06 75.78 791.63 72.63 792.44 72 794.87 75.16 797.27 78.32 798.44 79.89 799.59 81.48 800.71 83.06 801.8 84.64 802.85 86.23 803.86 87.81 804.83 89.4 805.74 90.99 806.59 92.59 807.39 94.18 808.11 95.78 808.77 97.38 809.35 98.98 809.85 100.58 810.26 102.19 810.43 102.99 810.59 103.8 810.71 104.61 810.81 105.41 810.89 106.22 810.94 107.03 810.96 107.84 810.96 108.65 810.92 109.46 810.86 110.27 810.77 111.08 810.65 111.9 810.5 112.71 810.32 113.52 810.11 114.33 809.87 115.15 809.59 115.96 809.28 116.77 808.94 117.59 808.56 118.4 808.15 119.21 807.7 120.02 807.22 120.83 806.7 121.64 806.14 122.45 805.55 123.27 804.25 124.88 802.8 126.5 801.22 128.11 799.5 129.73 797.64 131.34 795.66 132.95 793.56 134.56 791.34 136.17 789.01 137.78 786.57 139.4 784.02 141.01 781.38 142.62 778.64 144.24 775.81 145.85 772.9 147.46 769.91 149.07 766.85 150.69 763.71 152.3 760.51 153.91 757.24 155.53 750.55 158.76 743.67 161.99 736.64 165.22 729.49 168.45 722.27 171.68 715.02 174.92 714.6 173.98"/></g><g class="cls-13"><g class="cls-14"><path class="cls-15" d="M439.52,24.82c-.54-1.67-1.89-4.91-4.2-5.77-2.63-1-4.93,1.22-5.58,1.89a3.7,3.7,0,0,0-.83-4.77c-1.34-1.06-4.23-.81-5.86-.55a.32.32,0,0,0-.07.61,15.53,15.53,0,0,1,4.75,3,4.55,4.55,0,0,0-5.23-.51c-1.41.8-2.66,2.95-3.33,4.29a.32.32,0,0,0,.45.42,13.62,13.62,0,0,1,5.19-2.15,4.38,4.38,0,0,0-2,1.92,8.76,8.76,0,0,0-.54,4.84.32.32,0,0,0,.61.1,11.06,11.06,0,0,1,2.56-3.75,1.1,1.1,0,0,0-.1.45,1.29,1.29,0,0,0,1.29,1.28,1.27,1.27,0,0,0,.8-.29,85.17,85.17,0,0,0-1.29,15.35.65.65,0,0,0,.65.64h2.11a.65.65,0,0,0,.64-.77,41.1,41.1,0,0,1-.13-15.28,1.32,1.32,0,0,0,1.13.64,1.29,1.29,0,0,0,1.28-1.28.77.77,0,0,0,0-.26,17.81,17.81,0,0,1,2,4.74.31.31,0,0,0,.58,0,7.7,7.7,0,0,0,.32-5.77,4.14,4.14,0,0,0-2.37-2.21A23.45,23.45,0,0,1,439,25.14.3.3,0,0,0,439.52,24.82Z" transform="translate(0 1.14)"/></g></g><g class="cls-16"><g class="cls-17"><path class="cls-15" d="M445.14,99.72l-1.22-1.78v-.52a.15.15,0,0,0-.25-.1l-2,1.87a1.18,1.18,0,0,0-.36.85v.08c0,1.24-3.35,1.75-3.35,5.67a7.64,7.64,0,0,0,.1,1.36l-.1-.09a3.46,3.46,0,0,1-.73-2.57,3.91,3.91,0,0,1,.53-1.62c.4-.84.87-1.8.07-2.62a.43.43,0,0,0-.61,0,.41.41,0,0,0,0,.61c.33.34.19.73-.23,1.62a4.48,4.48,0,0,0-.63,2,4.34,4.34,0,0,0,1,3.22,2.06,2.06,0,0,0,1,.53c.27.58.61.75.75.75h1.75a.42.42,0,0,0,.44-.43.44.44,0,0,0-.38-.44h-.5a2.12,2.12,0,0,0,1-2c0-1-.19-1.36-.83-1.71a.21.21,0,0,1,.21-.37,2,2,0,0,1,1.06,2.08,3.18,3.18,0,0,1-.29,1.38v1.09a.44.44,0,0,0,.87,0v-1.34a4,4,0,0,0,.29-.39v1.73a.42.42,0,0,0,.44.43.41.41,0,0,0,.43-.43v-3.87a4.57,4.57,0,0,0,.15-1.08,14.84,14.84,0,0,0-.29-1.89.58.58,0,0,1,.58-.58,1.16,1.16,0,0,0,1.16-1.16A.38.38,0,0,0,445.14,99.72Z" transform="translate(0 1.14)"/></g></g><g class="cls-18"><g class="cls-19"><path class="cls-15" d="M382.55,122.48h.21a.42.42,0,0,0,.42-.42.47.47,0,0,0,0-.17l-1-2.51a4,4,0,0,0-.79-1.28l-1.74-1.94a1.31,1.31,0,0,1-.34-.88v-.06a2.88,2.88,0,0,0-.83-2l-.24-.24a.31.31,0,0,0-.44,0,.33.33,0,0,0-.09.21v1a.56.56,0,0,1-.55.56h-1.54a3.42,3.42,0,0,0-3.43,3.42v.21a.75.75,0,0,1-.38.65l-.43.24a1,1,0,0,0-.5.86.21.21,0,0,0,.21.21.11.11,0,0,0,.08,0l1.24-.42a.65.65,0,0,0,.34-.27.2.2,0,0,1,.28,0l.05,0a.63.63,0,0,0,.35.27l1.38.46a.11.11,0,0,0,.14-.08v0a1.22,1.22,0,0,0-.62-1.06l-.66-.37a.59.59,0,0,1-.32-.51v-.23a1.31,1.31,0,0,1,1.31-1.31.91.91,0,0,1,.73.29l3.87,3.94a.91.91,0,0,0,.66.28h.21a.21.21,0,0,0,.21-.21.28.28,0,0,0,0-.13l-.59-.78a.18.18,0,0,1,0-.25h0a.18.18,0,0,1,.23,0l1.56,2A1.28,1.28,0,0,0,382.55,122.48Z" transform="translate(0 1.14)"/><path class="cls-15" d="M375.05,118.29a.3.3,0,0,0,0,.43.29.29,0,0,0,.21.11l.35,0a3.14,3.14,0,0,0,1-.11l-.94-1Z" transform="translate(0 1.14)"/></g></g><g class="cls-20"><g class="cls-21"><path class="cls-15" d="M364.44,67.75c-.24,0-.47.19-.54.54s.06.65.29.7.47-.19.54-.54S364.66,67.8,364.44,67.75Z" transform="translate(0 1.14)"/><path class="cls-15" d="M365.45,70.11c-.06.06-.12.14-.22.13l-1.79-.34h0l-1.67,0a1.89,1.89,0,0,0,.3-.86c.2-1.82-1.36-2-1.11-3.2a2.86,2.86,0,0,1,.86.17l1.3.51a1.88,1.88,0,0,0-.09.57.2.2,0,0,0,.18.2h.1a1.51,1.51,0,0,1,.76-.2.42.42,0,0,0,.22-.08,1.68,1.68,0,0,1,.74,1.41c0,.18.67,1,.67,1S365.56,70,365.45,70.11Zm-12,.39a1.08,1.08,0,0,1-.24-.62v-.16A4,4,0,0,1,357.1,66h2.08l.3-.05a7.88,7.88,0,0,0-.42,4.86H359a6.2,6.2,0,0,1-1.43.15h-1.31a3.74,3.74,0,0,1-1.06.65v.5a.74.74,0,0,0,1.47,0v-.71h.9a7.77,7.77,0,0,0,1.52-.16l.2-.05v.92a.74.74,0,0,0,1.47,0V70.81l.29-.14v1.47a.73.73,0,0,0,1.46,0V70.36l.86,0,1.81.34h.09a1,1,0,0,0,.48-.26,1.93,1.93,0,0,0,.35-.72.62.62,0,0,0-.14-.63,4.51,4.51,0,0,1-.54-.7,2.06,2.06,0,0,0-1-1.77c.05-.48-.06-1-.57-.82a1.05,1.05,0,0,0-.54.38l-1.34-.52a3.2,3.2,0,0,0-1.26-.2,5.17,5.17,0,0,0-.68,0l-.85.12h-2a4.38,4.38,0,0,0-4.31,4.11v.16a1.32,1.32,0,0,0,.06.39,1.41,1.41,0,0,0,.62.8v1.08a.73.73,0,1,0,1.46,0h0v-.68c1.24-.47,1.76-1.28,1.78-1.87,0-.34-.19-1.2-1.46-1.13a1.85,1.85,0,0,0-1.77,1.7v.35Z" transform="translate(0 1.14)"/></g></g><ellipse class="cls-15" cx="573.48" cy="30.33" rx="2.82" ry="2.85"/><path class="cls-22" d="M594.06,26.37a2.85,2.85,0,1,1,2.85,2.85A2.86,2.86,0,0,1,594.06,26.37Z" transform="translate(0 1.14)"/><circle class="cls-15" cx="577.26" cy="75.24" r="2.82"/><path class="cls-22" d="M578.88,50.76a2.85,2.85,0,1,1,2.85,2.82A2.84,2.84,0,0,1,578.88,50.76Z" transform="translate(0 1.14)"/><path class="cls-22" d="M611.28,41.58a2.82,2.82,0,1,1,2.82,2.82A2.82,2.82,0,0,1,611.28,41.58Z" transform="translate(0 1.14)"/><ellipse class="cls-15" cx="594.06" cy="44.49" rx="2.82" ry="2.85"/><line class="cls-23" x1="592.05" y1="46.5" x2="577.26" y2="72.4"/><line class="cls-23" x1="596.88" y1="44.48" x2="611.24" y2="42.72"/><line class="cls-23" x1="583.74" y1="49.92" x2="591.22" y2="44.52"/><line class="cls-23" x1="575.46" y1="32.34" x2="592.03" y2="42.48"/><line class="cls-23" x1="596.89" y1="30.36" x2="594.06" y2="41.68"/><line class="cls-23" x1="612.12" y1="44.76" x2="579.3" y2="73.26"/><line class="cls-23" x1="573.48" y1="33.18" x2="579.74" y2="49.9"/><path class="cls-24" d="M299,47.74c.94-.54,1.88-1.1,2.83-1.62a15.3,15.3,0,0,0,1.62-.81c.47-.33.73-.91,1.21-1.21,1.71-1.07,2.22-.67,4.05-1.22.69-.21,1.31-.65,2-.81a21.23,21.23,0,0,1,3.64-.4l28.32-.81c13.49-1.69,10.41-1.61,32.36-.41,1.28.07,2.41.87,3.64,1.22,1.6.46,3.27.68,4.86,1.21a7.5,7.5,0,0,0,1.21.41c1.2.2,2.43.27,3.64.4.27.41.41.93.81,1.21,1.18.85,3.11,1,4.45,1.22a18,18,0,0,0,2,1.21c1.18.51,3.64,1.22,3.64,1.22.54.54.92,1.31,1.62,1.61a28.37,28.37,0,0,0,4.85,1.22,29.57,29.57,0,0,1,2.84,2c.47.48.67,1.21,1.21,1.62a16.36,16.36,0,0,0,2,.81c.86.46,1.62,1.08,2.43,1.62a8.81,8.81,0,0,0,1.21,1.61c.46.4,1.19.39,1.62.81a10.09,10.09,0,0,1,1.21,2c.26.41.39,1,.81,1.21a6.48,6.48,0,0,0,2,.4c1.47,2.21.19.95,4,1.62,2,.36,4,.88,6.07,1.22,1.75.29,7.08.69,8.49.8.95.27,1.9.5,2.84.81,4.57,1.53-.24.25,3.64,1.22l3.23,1.62L451.86,72c.86,2.58-.28-.24,2,2.83a12.88,12.88,0,0,1,.81,1.62c.38.69.86,1.32,1.21,2,.2.38.24.82.41,1.22s.54,1.08.81,1.61c1.08,8.68-.43-4.16.81,13.76a4.53,4.53,0,0,0,.4,1.21c1.14,3,.54.93,1.22,3.64.47,7.09.22,6.08,1.61,13.76.08.42.3.8.41,1.21.16.67.24,1.36.4,2,.11.42,0,1,.41,1.22a5.39,5.39,0,0,0,2,.4,14.85,14.85,0,0,0,2,1.22,17.18,17.18,0,0,0,2,.4c.42.1.81.27,1.22.41,2.36,2.35-1.48-1.19,2.83,1.21a6.56,6.56,0,0,1,1.62,1.62c.31.37.39,1,.81,1.21a17.38,17.38,0,0,0,4.45,1.21A33.4,33.4,0,0,0,482.6,127c1.21.2,2.43.27,3.64.4,1.22.54,2.42,1.11,3.64,1.62a4.5,4.5,0,0,0,1.22.41c2,.22,4,.27,6.07.4a40.66,40.66,0,0,1,4.45,1.21c.19.08,2.64,1.11,3.23,1.22,1.07.19,2.16.27,3.24.4.27.54.32,1.26.81,1.62a8.22,8.22,0,0,0,2.42.81,19.74,19.74,0,0,0,2.84.81c1.44,1.44.31.63,3.23,1.21,4.77,1-2.75-.22,4.45.81,4.69,1.56.1,0,5.26,2a28.92,28.92,0,0,0,4.85,1.22c2,.35,4.93.51,6.88.81,1.49.22,3,.49,4.45.81,1.12.24,2.15.91,3.24,1.21a22.19,22.19,0,0,0,2.42.4c.54.27,1.1.51,1.62.81.74.43,2,1.49,2.83,1.62,3.42.54,8.71.41,12.14.41" transform="translate(0 1.14)"/><g class="cls-25"><path class="cls-26" d="M289.2,28.89c-18.74,30.83-37.48,61.66-49.34,59.44s-20-58.09-21.84-72.79S222.34.52,228.54.18" transform="translate(0 1.14)"/></g><g class="cls-25"><path class="cls-27" d="M273.42,126.36c-6.44-35.9-12.87-71.81-24.26-72.42s-44.08,68.78-44.08,68.78" transform="translate(0 1.14)"/></g></g></svg>