<svg id="Layer_1" data-name="Layer 1" xmlns="http://www.w3.org/2000/svg" xmlns:xlink="http://www.w3.org/1999/xlink" viewBox="0 0 340.14 439.38"><defs><style>.cls-1,.cls-110,.cls-111,.cls-112,.cls-125,.cls-2,.cls-3,.cls-48,.cls-57,.cls-7,.cls-8,.cls-91,.cls-92,.cls-93,.cls-94{fill:none;}.cls-2{clip-rule:evenodd;}.cls-24,.cls-3,.cls-31{fill-rule:evenodd;}.cls-4{clip-path:url(#clip-path);}.cls-5,.cls-6{fill:#fff;}.cls-6{opacity:0.1;}.cls-110,.cls-111,.cls-7,.cls-91,.cls-92{stroke:#d9d9d9;}.cls-7,.cls-8{stroke-miterlimit:10;}.cls-111,.cls-112,.cls-125,.cls-7,.cls-8,.cls-91{stroke-width:0.78px;}.cls-125,.cls-57,.cls-8{stroke:#bfbfbf;}.cls-125,.cls-8{stroke-dasharray:2.34 0.78;}.cls-25,.cls-26,.cls-9{font-size:13.98px;}.cls-21,.cls-24,.cls-9{fill:#595959;}.cls-26,.cls-9{font-family:MicrosoftJhengHeiRegular, Microsoft JhengHei;}.cls-10{letter-spacing:0em;}.cls-11{letter-spacing:0em;}.cls-12{letter-spacing:0em;}.cls-13{letter-spacing:0em;}.cls-14{letter-spacing:0.01em;}.cls-15{letter-spacing:0em;}.cls-16{letter-spacing:0em;}.cls-17{letter-spacing:0em;}.cls-18{letter-spacing:0.02em;}.cls-19{letter-spacing:0em;}.cls-20{letter-spacing:0em;}.cls-22{letter-spacing:0em;}.cls-23{letter-spacing:0em;}.cls-25{font-family:MicrosoftJhengHeiBold, Microsoft JhengHei;}.cls-25,.cls-46,.cls-53,.cls-88,.cls-97{font-weight:700;}.cls-27{letter-spacing:0.01em;}.cls-28{letter-spacing:0em;}.cls-29{letter-spacing:0em;}.cls-30{letter-spacing:0em;}.cls-32{font-size:10.04px;}.cls-113,.cls-115,.cls-120,.cls-32,.cls-33,.cls-45,.cls-81{font-family:ArialMT, Arial;}.cls-113,.cls-33,.cls-97{font-size:7.98px;}.cls-34{letter-spacing:0.02em;}.cls-35{letter-spacing:-0.01em;}.cls-36{letter-spacing:0em;}.cls-37{letter-spacing:0.01em;}.cls-38{letter-spacing:0.04em;}.cls-39{letter-spacing:0em;}.cls-40{letter-spacing:0.02em;}.cls-41{letter-spacing:0em;}.cls-42{letter-spacing:0em;}.cls-43{letter-spacing:0em;}.cls-44{letter-spacing:0em;}.cls-45{font-size:4.98px;letter-spacing:0em;}.cls-46{font-size:7.04px;}.cls-46,.cls-53,.cls-97{font-family:Arial-BoldMT, Arial;}.cls-47{fill:#fff2cc;}.cls-112,.cls-48{stroke:#000;}.cls-110,.cls-111,.cls-112,.cls-48,.cls-57,.cls-92,.cls-93,.cls-94{stroke-linejoin:round;}.cls-110,.cls-48,.cls-93,.cls-94{stroke-width:1.5px;}.cls-49{fill:#e2f0d9;}.cls-113,.cls-50{letter-spacing:-0.01em;}.cls-51{fill:#f2f2f2;}.cls-52{letter-spacing:0em;}.cls-53{font-size:7.02px;}.cls-54{letter-spacing:0em;}.cls-55{letter-spacing:-0.01em;}.cls-56{letter-spacing:0.01em;}.cls-57,.cls-92{stroke-width:0.24px;}.cls-57{stroke-dasharray:0.72 0.24;}.cls-58{letter-spacing:0.04em;}.cls-59{letter-spacing:0em;}.cls-60{letter-spacing:0em;}.cls-61{letter-spacing:0em;}.cls-62{letter-spacing:0em;}.cls-63{letter-spacing:0.01em;}.cls-64{letter-spacing:0em;}.cls-65{letter-spacing:0em;}.cls-66{letter-spacing:0.03em;}.cls-67{letter-spacing:0.01em;}.cls-68{letter-spacing:0em;}.cls-69{letter-spacing:0em;}.cls-70{letter-spacing:-0.01em;}.cls-71{letter-spacing:0.01em;}.cls-72{letter-spacing:0.01em;}.cls-73{letter-spacing:0em;}.cls-74{letter-spacing:0.01em;}.cls-75{letter-spacing:0.03em;}.cls-76{letter-spacing:0.04em;}.cls-77{letter-spacing:-0.01em;}.cls-78{letter-spacing:0.03em;}.cls-79{letter-spacing:-0.01em;}.cls-80{letter-spacing:0.02em;}.cls-81,.cls-88{font-size:8px;}.cls-82{letter-spacing:0em;}.cls-83{letter-spacing:0em;}.cls-84{letter-spacing:0.01em;}.cls-85{letter-spacing:0em;}.cls-86{letter-spacing:0em;}.cls-87{letter-spacing:0.01em;}.cls-88{fill:#385723;font-family:Calibri-Bold, Calibri;}.cls-89{letter-spacing:0em;}.cls-90{letter-spacing:0.02em;}.cls-125,.cls-91{stroke-miterlimit:8;}.cls-92{stroke-dasharray:0.96 0.72;}.cls-93{stroke:#ffe699;}.cls-94{stroke:#c5e0b4;}.cls-95{letter-spacing:0em;}.cls-96{letter-spacing:0.01em;}.cls-98{letter-spacing:0em;}.cls-99{letter-spacing:-0.03em;}.cls-100{letter-spacing:0.01em;}.cls-101{clip-path:url(#clip-path-61);}.cls-102{fill:#ffd966;}.cls-103{fill:#a9d18e;}.cls-104{letter-spacing:0em;}.cls-105{letter-spacing:0.01em;}.cls-106{letter-spacing:0.01em;}.cls-107{letter-spacing:0.04em;}.cls-108{letter-spacing:0em;}.cls-109{letter-spacing:0em;}.cls-111{stroke-dasharray:3.12 2.34;}.cls-114{fill:#d6dce5;}.cls-115{font-size:9px;}.cls-116{letter-spacing:0em;}.cls-117{letter-spacing:-0.01em;}.cls-118{letter-spacing:0em;}.cls-119{letter-spacing:0.01em;}.cls-120{font-size:6px;}.cls-121{letter-spacing:0.01em;}.cls-122{letter-spacing:0em;}.cls-123{letter-spacing:0em;}.cls-124{fill:#a6a6a6;opacity:0.2;}</style><clipPath id="clip-path" transform="translate(0 0)"><rect class="cls-1" width="340.14" height="439.38"/></clipPath><clipPath id="clip-path-61" transform="translate(0 0)"><polyline class="cls-2" points="0 0 340.14 0 340.14 439.38 0 439.38"/></clipPath></defs><title>example</title><g class="cls-4"><g class="cls-4"><rect class="cls-5" width="340.14" height="439.38"/></g><rect class="cls-6" x="6.09" y="284.49" width="155.88" height="127.56"/><rect class="cls-7" x="6.09" y="284.49" width="155.88" height="127.56"/><rect class="cls-5" x="4.35" y="9.33" width="216.48" height="119.82" rx="19.97" ry="19.97"/><rect class="cls-8" x="4.35" y="9.33" width="216.48" height="119.82" rx="19.97" ry="19.97"/><g class="cls-4"><text class="cls-9" transform="translate(16.8 32.42)">M<tspan class="cls-10" x="13.5" y="0">a</tspan><tspan class="cls-11" x="21.16" y="0">ry no</tspan><tspan class="cls-12" x="54.43" y="0">t</tspan><tspan x="59.55" y="0">iced</tspan><tspan class="cls-13" x="86.86" y="0"> </tspan><tspan x="90.42" y="0">th</tspan><tspan class="cls-12" x="104" y="0">a</tspan><tspan x="111.69" y="0">t her</tspan><tspan class="cls-12" x="141.85" y="0"> </tspan><tspan x="145.39" y="0">little </tspan></text></g><g class="cls-4"><text class="cls-9" transform="translate(16.8 49.22)">boy<tspan class="cls-14" x="24.91" y="0"> </tspan><tspan x="28.49" y="0">w</tspan><tspan class="cls-15" x="39.32" y="0">a</tspan><tspan x="47" y="0">s </tspan><tspan class="cls-16" x="56.87" y="0">l</tspan><tspan class="cls-17" x="60.44" y="0">ooking</tspan><tspan class="cls-18" x="106.51" y="0"> </tspan><tspan class="cls-17" x="110.23" y="0">sad</tspan><tspan class="cls-15" x="133.12" y="0">.</tspan><tspan class="cls-19" x="136.37" y="0"> </tspan><tspan class="cls-11" x="139.79" y="0">When </tspan></text></g><g class="cls-4"><text class="cls-9" transform="translate(16.8 66.02)">she <tspan class="cls-15" x="26.26" y="0">a</tspan><tspan x="33.94" y="0">sked him he</tspan><tspan class="cls-12" x="112.96" y="0"> </tspan><tspan x="116.5" y="0">wo</tspan><tspan class="cls-10" x="136.15" y="0">u</tspan><tspan x="144.67" y="0">ld </tspan><tspan class="cls-20" x="160.65" y="0">n</tspan><tspan x="169.18" y="0">ot </tspan></text></g><g class="cls-4"><text class="cls-9" transform="translate(16.8 82.82)">tell</text></g><rect class="cls-21" x="16.8" y="85.16" width="20.16" height="0.84"/><g class="cls-4"><text class="cls-9" transform="translate(40.56 82.82)">her<tspan class="cls-22" x="21.59" y="0"> </tspan><tspan x="25.13" y="0">the </tspan></text></g><g class="cls-4"><text class="cls-9" transform="translate(90.68 82.82)">probl<tspan class="cls-23" x="35.33" y="0">e</tspan><tspan x="43.16" y="0">m</tspan></text></g><polygon class="cls-24" points="90.66 85.16 118.71 85.16 146.76 85.16 146.76 86 118.71 86 90.66 86 90.66 85.16"/><g class="cls-4"><text class="cls-9" transform="translate(146.78 82.82)">.</text></g><g class="cls-4"><text class="cls-25" transform="translate(153.82 82.82)">Mary</text></g><g class="cls-4"><text class="cls-26" transform="translate(16.8 99.62)">decided<tspan class="cls-27" x="52.92" y="0"> </tspan><tspan class="cls-17" x="56.5" y="0">to</tspan><tspan class="cls-13" x="70.39" y="0"> </tspan><tspan x="73.94" y="0">set</tspan><tspan class="cls-14" x="93.26" y="0"> </tspan><tspan x="96.84" y="0">up</tspan><tspan class="cls-12" x="114.19" y="0"> </tspan><tspan class="cls-11" x="117.72" y="0">a </tspan></text></g><g class="cls-4"><text class="cls-26" transform="translate(145.7 99.62)">pl<tspan class="cls-15" x="12.46" y="0">a</tspan><tspan class="cls-17" x="20.14" y="0">y</tspan><tspan class="cls-28" x="27.39" y="0">d</tspan><tspan class="cls-29" x="36.3" y="0">at</tspan><tspan class="cls-30" x="49.08" y="0">e</tspan></text></g><polygon class="cls-31" points="145.68 101.96 174.12 101.96 202.56 101.96 202.56 102.8 174.12 102.8 145.68 102.8 145.68 101.96"/><g class="cls-4"><text class="cls-26" transform="translate(16.8 116.44)">fo<tspan class="cls-10" x="13.47" y="0">r </tspan><tspan x="22.2" y="0">him.</tspan></text></g><g class="cls-4"><text class="cls-32" transform="translate(30.4 399.14)">…</text></g><g class="cls-4"><text class="cls-33" transform="translate(16.86 423.82)">(c) Top</text></g><g class="cls-4"><text class="cls-33" transform="translate(42.12 423.82)">-</text></g><g class="cls-4"><text class="cls-33" transform="translate(44.76 423.82)">K<tspan class="cls-34" x="5.32" y="0"> </tspan><tspan x="7.73" y="0">Kno</tspan><tspan class="cls-35" x="21.93" y="0">w</tspan><tspan class="cls-36" x="27.65" y="0">l</tspan><tspan x="29.44" y="0">ed</tspan><tspan class="cls-37" x="38.32" y="0">g</tspan><tspan x="42.81" y="0">e</tspan><tspan class="cls-38" x="47.25" y="0"> </tspan><tspan x="49.83" y="0">Pat</tspan><tspan class="cls-39" x="61.8" y="0">h</tspan><tspan class="cls-36" x="66.25" y="0">s</tspan><tspan class="cls-40" x="70.26" y="0"> </tspan><tspan x="72.65" y="0">Se</tspan><tspan class="cls-41" x="82.41" y="0">l</tspan><tspan class="cls-42" x="84.21" y="0">e</tspan><tspan class="cls-36" x="88.65" y="0">c</tspan><tspan class="cls-43" x="92.66" y="0">t</tspan><tspan class="cls-36" x="94.88" y="0">i</tspan><tspan x="96.66" y="0">on</tspan></text></g><g class="cls-4"><text class="cls-33" transform="translate(31.46 345.84)">te<tspan class="cls-44" x="6.66" y="0">l</tspan><tspan x="8.44" y="0">l</tspan></text></g><g class="cls-4"><text class="cls-33" transform="translate(58.1 345.98)">order</text></g><g class="cls-4"><text class="cls-45" transform="translate(44.46 331.24)">0.338</text></g><g class="cls-4"><text class="cls-46" transform="translate(75.3 336.82)">0.113</text></g><circle class="cls-47" cx="36.63" cy="333.81" r="4.26"/><circle class="cls-48" cx="36.63" cy="333.81" r="4.26"/><ellipse class="cls-49" cx="66.24" cy="333.75" rx="4.23" ry="4.26"/><ellipse class="cls-48" cx="66.24" cy="333.75" rx="4.23" ry="4.26"/><line class="cls-48" x1="40.89" y1="333.83" x2="62" y2="333.75"/><g class="cls-4"><text class="cls-33" transform="translate(22.88 378.14)">problem</text></g><g class="cls-4"><text class="cls-33" transform="translate(58.66 377.92)"><tspan class="cls-50">w</tspan><tspan x="5.7" y="0">ar</tspan></text></g><ellipse class="cls-51" cx="93.78" cy="364.95" rx="4.23" ry="4.26"/><ellipse class="cls-48" cx="93.78" cy="364.95" rx="4.23" ry="4.26"/><g class="cls-4"><text class="cls-33" transform="translate(85.3 378.1)">e<tspan class="cls-52" x="4.44" y="0">as</tspan><tspan x="12.93" y="0">e</tspan></text></g><circle class="cls-49" cx="126.42" cy="365.1" r="4.23"/><circle class="cls-48" cx="126.42" cy="365.1" r="4.23"/><g class="cls-4"><text class="cls-33" transform="translate(120.56 378.4)">rest</text></g><line class="cls-48" x1="69.09" y1="364.95" x2="89.53" y2="364.95"/><line class="cls-48" x1="98.01" y1="364.95" x2="122.14" y2="365.08"/><g class="cls-4"><text class="cls-45" transform="translate(44.48 362.4)">0.104</text></g><g class="cls-4"><text class="cls-45" transform="translate(72.62 363.06)">0.161</text></g><g class="cls-4"><text class="cls-45" transform="translate(105.14 362.54)">0.12</text></g><g class="cls-4"><text class="cls-53" transform="translate(133.7 367.5)">0<tspan class="cls-54" x="3.9" y="0">.</tspan><tspan x="5.88" y="0">077</tspan></text></g><circle class="cls-47" cx="35.91" cy="364.95" r="4.26"/><circle class="cls-48" cx="35.91" cy="364.95" r="4.26"/><circle class="cls-51" cx="64.83" cy="364.95" r="4.26"/><circle class="cls-48" cx="64.83" cy="364.95" r="4.26"/><line class="cls-48" x1="60.6" y1="364.95" x2="40.17" y2="364.95"/><g class="cls-4"><text class="cls-33" transform="translate(23 314.86)">p<tspan class="cls-36" x="4.44" y="0">l</tspan><tspan x="6.23" y="0">a</tspan><tspan class="cls-55" x="10.67" y="0">y</tspan><tspan x="14.57" y="0">da</tspan><tspan class="cls-56" x="23.44" y="0">t</tspan><tspan x="25.72" y="0">e</tspan></text></g><g class="cls-4"><text class="cls-33" transform="translate(56.66 315.2)">date</text></g><g class="cls-4"><text class="cls-33" transform="translate(79.54 315.7)">friend</text></g><g class="cls-4"><text class="cls-33" transform="translate(106.14 315.98)">fam<tspan class="cls-41" x="13.3" y="0">i</tspan><tspan class="cls-44" x="15.11" y="0">l</tspan><tspan class="cls-42" x="16.9" y="0">y</tspan></text></g><g class="cls-4"><text class="cls-45" transform="translate(46.94 301.3)">1.0</text></g><g class="cls-4"><text class="cls-45" transform="translate(69.74 301.6)">0.105</text></g><g class="cls-4"><text class="cls-45" transform="translate(95.38 301.8)">0.162</text></g><g class="cls-4"><text class="cls-53" transform="translate(123.78 306.32)">0<tspan class="cls-54" x="3.9" y="0">.</tspan><tspan x="5.88" y="0">253</tspan></text></g><circle class="cls-47" cx="36.87" cy="303.87" r="4.26"/><circle class="cls-48" cx="36.87" cy="303.87" r="4.26"/><ellipse class="cls-51" cx="63.42" cy="303.87" rx="4.23" ry="4.26"/><ellipse class="cls-48" cx="63.42" cy="303.87" rx="4.23" ry="4.26"/><ellipse class="cls-51" cx="88.68" cy="303.93" rx="4.23" ry="4.26"/><ellipse class="cls-48" cx="88.68" cy="303.93" rx="4.23" ry="4.26"/><circle class="cls-49" cx="115.23" cy="303.99" r="4.26"/><circle class="cls-48" cx="115.23" cy="303.99" r="4.26"/><line class="cls-48" x1="67.65" y1="303.87" x2="84.4" y2="303.91"/><line class="cls-48" x1="92.91" y1="303.93" x2="110.95" y2="304"/><line class="cls-48" x1="41.13" y1="303.87" x2="59.17" y2="303.87"/><rect class="cls-5" x="228.42" y="98.76" width="102.96" height="19.8" rx="3.3" ry="3.3"/><rect class="cls-57" x="228.42" y="98.76" width="102.96" height="19.8" rx="3.3" ry="3.3"/><g class="cls-4"><text class="cls-33" transform="translate(263.18 111.68)">food,<tspan class="cls-58" x="17.75" y="0"> </tspan><tspan x="20.27" y="0">rest</tspan></text></g><rect class="cls-5" x="228.72" y="77.1" width="103.02" height="19.8" rx="3.3" ry="3.3"/><rect class="cls-57" x="228.72" y="77.1" width="103.02" height="19.8" rx="3.3" ry="3.3"/><g class="cls-4"><text class="cls-33" transform="translate(240.76 85.22)">hea<tspan class="cls-59" x="13.31" y="0">l</tspan><tspan x="15.11" y="0">th,</tspan><tspan class="cls-58" x="23.98" y="0"> </tspan><tspan class="cls-60" x="26.5" y="0">s</tspan><tspan x="30.52" y="0">a</tspan><tspan class="cls-60" x="34.96" y="0">v</tspan><tspan class="cls-61" x="38.97" y="0">i</tspan><tspan class="cls-62" x="40.76" y="0">ng</tspan><tspan class="cls-60" x="49.63" y="0">s</tspan><tspan x="53.65" y="0">,</tspan><tspan class="cls-63" x="55.87" y="0"> </tspan><tspan x="58.19" y="0">orde</tspan><tspan class="cls-64" x="74.17" y="0">r</tspan><tspan x="76.8" y="0">, </tspan></text></g><g class="cls-4"><text class="cls-33" transform="translate(269.68 94.82)"><tspan class="cls-60">s</tspan><tspan x="4.01" y="0">afety</tspan></text></g><rect class="cls-5" x="228.72" y="55.68" width="103.02" height="19.8" rx="3.3" ry="3.3"/><rect class="cls-57" x="228.72" y="55.68" width="103.02" height="19.8" rx="3.3" ry="3.3"/><g class="cls-4"><text class="cls-33" transform="translate(243.92 63.78)">ro<tspan class="cls-60" x="7.1" y="0">m</tspan><tspan x="13.77" y="0">a</tspan><tspan class="cls-65" x="18.21" y="0">nc</tspan><tspan class="cls-62" x="26.7" y="0">e</tspan><tspan class="cls-61" x="31.13" y="0">,</tspan><tspan class="cls-66" x="33.37" y="0"> </tspan><tspan x="35.82" y="0">b</tspan><tspan class="cls-65" x="40.25" y="0">e</tspan><tspan class="cls-61" x="44.72" y="0">l</tspan><tspan class="cls-62" x="46.51" y="0">o</tspan><tspan class="cls-52" x="50.95" y="0">n</tspan><tspan class="cls-62" x="55.42" y="0">g</tspan><tspan class="cls-52" x="59.86" y="0">i</tspan><tspan x="61.66" y="0">n</tspan><tspan class="cls-67" x="66.1" y="0">g</tspan><tspan class="cls-68" x="70.63" y="0">, </tspan></text></g><g class="cls-4"><text class="cls-33" transform="translate(243.32 73.38)">f<tspan class="cls-69" x="2.22" y="0">a</tspan><tspan class="cls-44" x="6.66" y="0">mil</tspan><tspan class="cls-70" x="16.9" y="0">y</tspan><tspan class="cls-68" x="20.83" y="0">,</tspan><tspan class="cls-71" x="23.05" y="0"> </tspan><tspan class="cls-72" x="25.38" y="0">s</tspan><tspan class="cls-62" x="29.41" y="0">o</tspan><tspan class="cls-56" x="33.84" y="0">c</tspan><tspan class="cls-61" x="37.89" y="0">i</tspan><tspan x="39.68" y="0">a</tspan><tspan class="cls-52" x="44.12" y="0">l</tspan><tspan x="45.92" y="0"> </tspan><tspan class="cls-72" x="48.14" y="0">c</tspan><tspan class="cls-62" x="52.17" y="0">o</tspan><tspan class="cls-52" x="56.61" y="0">n</tspan><tspan x="61.08" y="0">t</tspan><tspan class="cls-69" x="63.29" y="0">a</tspan><tspan class="cls-73" x="67.74" y="0">c</tspan><tspan class="cls-68" x="71.77" y="0">t</tspan></text></g><rect class="cls-5" x="228.84" y="33.72" width="102.72" height="19.86" rx="3.31" ry="3.31"/><rect class="cls-57" x="228.84" y="33.72" width="102.72" height="19.86" rx="3.31" ry="3.31"/><g class="cls-4"><text class="cls-33" transform="translate(246.12 41.84)"><tspan class="cls-60">c</tspan><tspan x="4.01" y="0">ompet</tspan><tspan class="cls-74" x="26.19" y="0">i</tspan><tspan x="28.01" y="0">t</tspan><tspan class="cls-61" x="30.22" y="0">i</tspan><tspan class="cls-62" x="32.01" y="0">on,</tspan><tspan class="cls-75" x="43.1" y="0"> </tspan><tspan class="cls-62" x="45.56" y="0">honor, </tspan></text></g><g class="cls-4"><text class="cls-33" transform="translate(238.68 51.44)">appro<tspan class="cls-44" x="20.41" y="0">v</tspan><tspan class="cls-62" x="24.42" y="0">a</tspan><tspan class="cls-61" x="28.85" y="0">l</tspan><tspan x="30.64" y="0">,</tspan><tspan class="cls-76" x="32.86" y="0"> </tspan><tspan x="35.37" y="0">po</tspan><tspan class="cls-77" x="44.25" y="0">w</tspan><tspan x="49.96" y="0">er,</tspan><tspan class="cls-78" x="59.27" y="0"> </tspan><tspan class="cls-59" x="61.71" y="0">s</tspan><tspan x="65.72" y="0">tatus</tspan></text></g><rect class="cls-5" x="228.96" y="12.3" width="102.6" height="19.86" rx="3.31" ry="3.31"/><rect class="cls-57" x="228.96" y="12.3" width="102.6" height="19.86" rx="3.31" ry="3.31"/><g class="cls-4"><text class="cls-33" transform="translate(248.3 20.44)"><tspan class="cls-60">c</tspan><tspan x="4.01" y="0">urio</tspan><tspan class="cls-72" x="17.32" y="0">s</tspan><tspan class="cls-44" x="21.35" y="0">i</tspan><tspan class="cls-68" x="23.14" y="0">t</tspan><tspan class="cls-79" x="25.36" y="0">y</tspan><tspan x="29.27" y="0">,</tspan><tspan class="cls-80" x="31.48" y="0"> </tspan><tspan class="cls-44" x="33.88" y="0">s</tspan><tspan x="37.88" y="0">erenit</tspan><tspan class="cls-70" x="57.84" y="0">y</tspan><tspan class="cls-68" x="61.77" y="0">, </tspan></text></g><g class="cls-4"><text class="cls-81" transform="translate(238.16 30.04)"><tspan class="cls-82">i</tspan><tspan x="1.79" y="0">de</tspan><tspan class="cls-83" x="10.68" y="0">a</tspan><tspan class="cls-82" x="15.11" y="0">li</tspan><tspan x="18.68" y="0">sm,</tspan><tspan class="cls-84" x="31.57" y="0"> </tspan><tspan class="cls-82" x="33.85" y="0">i</tspan><tspan x="35.64" y="0">nd</tspan><tspan class="cls-85" x="44.54" y="0">e</tspan><tspan x="48.96" y="0">pe</tspan><tspan class="cls-86" x="57.86" y="0">n</tspan><tspan class="cls-87" x="62.33" y="0">de</tspan><tspan x="71.31" y="0">nce</tspan></text></g><g class="cls-4"><text class="cls-88" transform="translate(256.78 128.94)">Reiss<tspan class="cls-89" x="16.88" y="0">’</tspan><tspan class="cls-90" x="18.91" y="0"> </tspan><tspan x="20.88" y="0">motives</tspan></text></g><rect class="cls-6" x="6.15" y="136.59" width="155.82" height="127.5"/><rect class="cls-91" x="6.15" y="136.59" width="155.82" height="127.5"/><rect class="cls-92" x="12.3" y="142.02" width="141.66" height="56.7"/><circle class="cls-47" cx="44.49" cy="176.91" r="4.26"/><circle class="cls-93" cx="44.49" cy="176.91" r="4.26"/><g class="cls-4"><text class="cls-33" transform="translate(39.52 190.38)">te<tspan class="cls-44" x="6.66" y="0">l</tspan><tspan x="8.44" y="0">l</tspan></text></g><ellipse class="cls-47" cx="79.38" cy="157.71" rx="4.23" ry="4.26"/><ellipse class="cls-93" cx="79.38" cy="157.71" rx="4.23" ry="4.26"/><g class="cls-4"><text class="cls-33" transform="translate(66.66 169.96)">problem</text></g><ellipse class="cls-47" cx="106.62" cy="175.83" rx="4.23" ry="4.26"/><ellipse class="cls-93" cx="106.62" cy="175.83" rx="4.23" ry="4.26"/><g class="cls-4"><text class="cls-33" transform="translate(90.64 189.6)">p<tspan class="cls-36" x="4.44" y="0">l</tspan><tspan x="6.23" y="0">a</tspan><tspan class="cls-79" x="10.67" y="0">y</tspan><tspan x="14.58" y="0">da</tspan><tspan class="cls-56" x="23.45" y="0">t</tspan><tspan class="cls-42" x="25.72" y="0">e</tspan></text></g><circle class="cls-47" cx="140.61" cy="158.07" r="4.26"/><circle class="cls-93" cx="140.61" cy="158.07" r="4.26"/><g class="cls-4"><path d="M137.49,168.19h1.29v1.29h-1.29Zm2.24,0H141v1.29h-1.28Zm2.15,0h1.28v1.29h-1.28Z" transform="translate(0 0)"/></g><ellipse class="cls-49" cx="35.28" cy="232.71" rx="4.23" ry="4.26"/><ellipse class="cls-94" cx="35.28" cy="232.71" rx="4.23" ry="4.26"/><g class="cls-4"><text class="cls-33" transform="translate(25 246.08)">fam<tspan class="cls-41" x="13.3" y="0">i</tspan><tspan class="cls-44" x="15.11" y="0">l</tspan><tspan x="16.9" y="0">y</tspan></text></g><ellipse class="cls-49" cx="72.87" cy="237.96" rx="4.26" ry="4.23"/><ellipse class="cls-94" cx="72.87" cy="237.96" rx="4.26" ry="4.23"/><g class="cls-4"><text class="cls-33" transform="translate(65.06 250.2)">f<tspan class="cls-69" x="2.22" y="0">o</tspan><tspan x="6.66" y="0">od</tspan></text></g><ellipse class="cls-49" cx="68.16" cy="212.13" rx="4.23" ry="4.26"/><ellipse class="cls-94" cx="68.16" cy="212.13" rx="4.23" ry="4.26"/><g class="cls-4"><text class="cls-33" transform="translate(61.08 225.72)">rest</text></g><ellipse class="cls-49" cx="135.93" cy="215.22" rx="4.26" ry="4.23"/><ellipse class="cls-94" cx="135.93" cy="215.22" rx="4.26" ry="4.23"/><g class="cls-4"><path d="M134.33,227.5h1.29v1.28h-1.29Zm2.23,0h1.29v1.28h-1.29Zm2.15,0H140v1.28h-1.29Z" transform="translate(0 0)"/></g><g class="cls-4"><text class="cls-33" transform="translate(56.4 275.2)">(a<tspan class="cls-95" x="7.1" y="0">)</tspan><tspan class="cls-96" x="9.72" y="0"> </tspan><tspan x="11.99" y="0">In</tspan><tspan class="cls-36" x="18.65" y="0">i</tspan><tspan class="cls-43" x="20.44" y="0">t</tspan><tspan class="cls-36" x="22.65" y="0">i</tspan><tspan x="24.44" y="0">a</tspan><tspan class="cls-36" x="28.88" y="0">liz</tspan><tspan class="cls-42" x="36.47" y="0">at</tspan><tspan class="cls-36" x="43.12" y="0">i</tspan><tspan x="44.91" y="0">on</tspan></text></g><rect class="cls-92" x="11.7" y="202.8" width="141.66" height="56.64"/><g class="cls-4"><text class="cls-97" transform="translate(21.72 154.94)">Co<tspan class="cls-98" x="10.64" y="0">n</tspan><tspan class="cls-42" x="15.49" y="0">cep</tspan><tspan class="cls-98" x="29.24" y="0">t</tspan><tspan x="31.87" y="0">s</tspan></text></g><polygon class="cls-31" points="21.71 155.77 30.78 155.77 39.86 155.77 48.93 155.77 58.01 155.77 58.01 156.61 48.93 156.61 39.86 156.61 30.78 156.61 21.71 156.61 21.71 155.77"/><g class="cls-4"><text class="cls-97" transform="translate(23.76 216.08)">Moti<tspan class="cls-99" x="16.4" y="0">v</tspan><tspan class="cls-100" x="20.63" y="0">e</tspan><tspan x="25.12" y="0">s</tspan></text></g><polygon class="cls-31" points="23.75 216.9 33.61 216.9 43.47 216.9 53.33 216.9 53.33 217.74 43.47 217.74 33.61 217.74 23.75 217.74 23.75 216.9"/><ellipse class="cls-49" cx="103.32" cy="213.27" rx="4.23" ry="4.26"/><ellipse class="cls-94" cx="103.32" cy="213.27" rx="4.23" ry="4.26"/><g class="cls-4"><text class="cls-33" transform="translate(93.48 225.52)"><tspan class="cls-36">s</tspan><tspan x="4.01" y="0">tatus</tspan></text></g><circle class="cls-49" cx="109.23" cy="234.57" r="4.26" transform="translate(-141.76 297.47) rotate(-79.1)"/><circle class="cls-94" cx="109.23" cy="234.57" r="4.26" transform="translate(-141.76 297.47) rotate(-79.1)"/><g class="cls-4"><text class="cls-33" transform="translate(94.44 246.82)"><tspan class="cls-36">c</tspan><tspan x="4.01" y="0">urio</tspan><tspan class="cls-52" x="17.31" y="0">s</tspan><tspan class="cls-44" x="21.33" y="0">i</tspan><tspan x="23.12" y="0">ty</tspan></text></g><g class="cls-101"><path class="cls-102" d="M31,180.69,36,176.28l-6.56-1.4Zm-5.64-2.36.22.09.11,0,.24,0H26l1.87,0,1.74-.11-.06-1-1.7.1-1.87,0h.09l-.23,0,.11,0-.23-.09Zm-3.2-6.74.11.42.22.82.23.77.24.72.23.65.22.57.95-.38-.21-.53-.22-.63-.23-.69-.22-.75-.23-.8-.1-.42Zm-1.48-7,.06.3.21,1.17.22,1.11.2,1.07.08.37,1-.21-.08-.36-.2-1.06-.22-1.11-.21-1.16,0-.3Zm-1.09-7.08.12.92.4,2.71.07.42,1-.16L21.1,161l-.4-2.7-.12-.92Zm-.89-7.1.25,2.13.24,1.93,1-.12-.24-1.93-.24-2.12ZM18,143.28l.27,2.78.13,1.29,1-.11L19.24,146,19,143.19Zm-.61-7.12.23,2.93.11,1.14,1-.09-.1-1.13-.23-2.93ZM16.82,129,17,131.7l.11,1.41,1-.08-.11-1.4L17.84,129Zm-.43-7.13.11,2,.13,2,1-.07-.12-2-.11-2ZM16,114.76l.05,1.09.14,3,1,0-.14-3-.05-1.09Zm-.27-7.14.14,4.08,1,0-.13-4.08Zm-.18-7.14.06,2.84,0,1.24,1,0,0-1.23-.06-2.84Zm-.12-7.15v1.46l0,2.63,1,0-.05-2.62V93.33Zm-.05-7.14,0,4.08h1l0-4.08Z" transform="translate(0 0)"/></g><g class="cls-101"><path class="cls-102" d="M85,146.22l-4,5.37-1.89-6.44Zm-2.24-1-.39,1.56-1-.25.4-1.56Zm3.51-5.89-.09.1-1,1.3-.91,1.39-.25.45-.89-.49.29-.52,1-1.45,1.06-1.37.09-.1Zm5.43-4.25-.73.35-1.28.8-1.24.94,0,0-.69-.75.12-.11,1.31-1,1.38-.85.73-.35Zm6.86-1.71-.49.23-.08,0-.72.2-.09,0-.72.07-.75,0-.69.07-.57.1-.18-1L95,133l.75-.08.69,0,.72-.07-.09,0,.72-.2-.08,0,.5-.23Zm5-5.39-.36.61-.68,1-.7.94-.68.79-.77-.66L101,130l.67-.89.65-1,.36-.61Zm3-6.56-.22.58-.6,1.49-.62,1.41-.16.33-.92-.44.15-.3.61-1.38.58-1.46.22-.58Zm2.16-6.85-.2.76-.51,1.76-.44,1.42-1-.31.44-1.39.5-1.74.2-.76Zm1.58-7,0,.13-.39,2-.43,1.91-1-.22.42-1.89.38-2,0-.12Zm1.09-7.07-.41,3.1-.16,1-1-.18.16-.92.41-3.1Zm.67-7.15L112,95l-.24,2.41-1-.1L111,95l.1-1.68Zm.25-7.15,0,2.21-.06,1.87-1,0,.06-1.85,0-2.22Z" transform="translate(0 0)"/></g><g class="cls-101"><path class="cls-102" d="M110.59,164.19l-3.7,5.59-2.26-6.31Zm-1.1-4.48-.08.17-.52,1.39-.44,1.39-.17.83-1-.2.2-.93.46-1.46.54-1.42.07-.17Zm3.36-6.18-.69,1-.78,1.3-.62,1.12-.9-.49.64-1.16.81-1.33.69-1Zm4.52-5.37-.49.47-1,1.11-1,1.15-.18.23-.8-.64.21-.26,1-1.18,1.07-1.14.49-.47Zm5.47-4.39-.11.06-1.24.85-1.21.91-.67.56-.65-.79.71-.58,1.24-.94,1.28-.87.11-.07Zm6.28-3.17-1.16.45-1.34.6-1.18.59-.46-.91,1.23-.62,1.38-.61,1.16-.45Zm6.8-1.52-1,.1-1.41.21-1.4.3-.1,0-.27-1,.16-.05,1.45-.31,1.47-.22,1-.1Zm7.16-.69-.91.19-1.47.23-1.47.14H139l0-1h.22l1.41-.13,1.41-.22.91-.19Zm6.82-2.45-.61.31-1.39.62-1.4.55-.43.14-.31-1,.37-.12,1.36-.53,1.34-.6.61-.31ZM156,132l-.18.14-1.24.94-1.28.88-.69.43-.54-.87.66-.41,1.24-.84,1.2-.91.18-.15Zm5.17-5-.79.9-1.07,1.14-1,.94-.71-.73.94-.91,1-1.11.8-.91Zm4.12-6-.32.57-.79,1.33-.87,1.29-.23.32-.82-.6.2-.29.84-1.25.78-1.29.31-.57Zm2.77-6.69-.06.23-.46,1.44-.54,1.44-.34.79-.94-.4.33-.75.52-1.38.44-1.41.06-.23Zm1-7.16-.05,1.47-.13,1.49-.18,1.16-1-.15.17-1.1.13-1.44,0-1.47Z" transform="translate(0 0)"/></g><g class="cls-101"><path class="cls-103" d="M153.92,218l-3.12,5.94-2.88-6.06Zm-2.5.83v.12l-1,0v-.12Zm.33-7.12-.22,3.64v.42l-1,0v-.45l.22-3.64Zm.64-7.08-.24,2.19-.16,1.85-1-.08.16-1.87.23-2.2Zm.9-7.06-.14.86-.41,3.17-1-.14.41-3.18.14-.87Zm1.17-7-.67,3.76,0,.24-1-.15,0-.26.68-3.77Zm1.45-7-.6,2.66-.26,1.31-1-.2.27-1.33.6-2.66Zm1.74-6.9-.5,1.8-.53,2.13-1-.24.54-2.16.49-1.8Zm2-6.82-.41,1.24-.79,2.65-1-.3.81-2.67.4-1.24ZM162,163.1l-.38,1-1,2.83-1-.34,1-2.86.38-1Zm2.74-6.56-.51,1.11-1.11,2.62-.94-.4,1.12-2.64.51-1.12Zm3.17-6.36-.87,1.6-1,2-.91-.46,1-2,.87-1.59Zm3.7-6,0,.06-.79,1.15-.76,1.19-.6,1-.87-.52.61-1,.78-1.22.79-1.18,0-.05Zm4.44-5.49-.5.52-.8.9-.81,1-.53.67-.8-.63.55-.69.83-1,.83-.93.49-.51Zm5.41-4.38-.12.06-.83.52-.83.58-.83.64-.63.52-.65-.78.66-.55.86-.67.88-.6.88-.55.11-.06Zm6.53-1.94-.79,0-.84.1-.83.16-.84.22-.55.18-.32-1,.61-.2.91-.23.9-.17.92-.11.8,0Zm7.18-.36h-.11l-3.49.26-.51,0,0-1,.48,0L195,131l.1,0Zm7.1-1.08-.43.1-3.35.57-.29,0-.12-1,.24,0,3.3-.56.43-.09Zm7-1.76-1,.32-2.9.78-.26-1,2.86-.76,1.05-.33Zm6.72-2.61-.78.37-1.3.57-1.35.53-.37.14-.35-1,.34-.12,1.33-.53,1.26-.55.78-.37Zm6.16-3.82-.47.4-.91.68-1,.66-1,.64-.53-.87,1-.62.94-.63.86-.64.48-.4Zm3.71-6.3,0,.72a.19.19,0,0,1,0,.08l-.17.72-.27.78-.39.78-.48.75-.15.19-.81-.62.1-.13.43-.65.34-.66.24-.67.17-.72,0,.08.06-.73Z" transform="translate(0 0)"/></g><rect class="cls-6" x="180.63" y="136.29" width="155.88" height="127.68"/><rect class="cls-91" x="180.63" y="136.29" width="155.88" height="127.68"/><g class="cls-4"><text class="cls-33" transform="translate(181.02 275.9)">(b<tspan class="cls-104" x="7.1" y="0">)</tspan><tspan class="cls-105" x="9.72" y="0"> </tspan><tspan x="11.99" y="0">Cand</tspan><tspan class="cls-59" x="31.07" y="0">i</tspan><tspan class="cls-62" x="32.87" y="0">da</tspan><tspan class="cls-56" x="41.74" y="0">t</tspan><tspan x="44.02" y="0">e</tspan><tspan class="cls-76" x="48.46" y="0"> </tspan><tspan x="50.97" y="0">Kno</tspan><tspan class="cls-35" x="65.17" y="0">w</tspan><tspan class="cls-61" x="70.89" y="0">l</tspan><tspan x="72.68" y="0">e</tspan><tspan class="cls-106" x="77.12" y="0">dg</tspan><tspan x="86.09" y="0">e</tspan><tspan class="cls-107" x="90.53" y="0"> </tspan><tspan class="cls-68" x="93.04" y="0">Pat</tspan><tspan class="cls-108" x="105.02" y="0">h</tspan><tspan class="cls-59" x="109.46" y="0">s</tspan><tspan class="cls-80" x="113.48" y="0"> </tspan><tspan class="cls-109" x="115.87" y="0">G</tspan><tspan x="122.05" y="0">ener</tspan><tspan class="cls-72" x="138.02" y="0">a</tspan><tspan x="142.5" y="0">t</tspan><tspan class="cls-61" x="144.72" y="0">i</tspan><tspan class="cls-106" x="146.51" y="0">o</tspan><tspan x="150.99" y="0">n</tspan></text></g><ellipse class="cls-51" cx="202.77" cy="167.64" rx="2.82" ry="2.85"/><ellipse class="cls-110" cx="202.77" cy="167.64" rx="2.82" ry="2.85"/><circle class="cls-51" cx="203.01" cy="191.79" r="2.82"/><circle class="cls-110" cx="203.01" cy="191.79" r="2.82"/><circle class="cls-51" cx="243" cy="180.54" r="4.23" transform="translate(25.87 391.48) rotate(-80.78)"/><circle class="cls-48" cx="243" cy="180.54" r="4.23" transform="translate(25.87 391.48) rotate(-80.78)"/><ellipse class="cls-51" cx="243" cy="199.17" rx="4.23" ry="4.26"/><ellipse class="cls-48" cx="243" cy="199.17" rx="4.23" ry="4.26"/><circle class="cls-47" cx="257.04" cy="159.24" r="4.23"/><circle class="cls-48" cx="257.04" cy="159.24" r="4.23"/><ellipse class="cls-49" cx="272.52" cy="185.43" rx="4.23" ry="4.26"/><ellipse class="cls-48" cx="272.52" cy="185.43" rx="4.23" ry="4.26"/><circle class="cls-51" cx="212.67" cy="222.87" r="2.82"/><circle class="cls-110" cx="212.67" cy="222.87" r="2.82"/><ellipse class="cls-51" cx="268.41" cy="206.88" rx="4.26" ry="4.23"/><ellipse class="cls-48" cx="268.41" cy="206.88" rx="4.26" ry="4.23"/><circle class="cls-47" cx="295.29" cy="168.63" r="4.26"/><circle class="cls-48" cx="295.29" cy="168.63" r="4.26"/><ellipse class="cls-49" cx="240.87" cy="226.98" rx="4.26" ry="4.23"/><ellipse class="cls-48" cx="240.87" cy="226.98" rx="4.26" ry="4.23"/><ellipse class="cls-51" cx="297.78" cy="206.37" rx="4.23" ry="4.26"/><ellipse class="cls-48" cx="297.78" cy="206.37" rx="4.23" ry="4.26"/><ellipse class="cls-51" cx="227.7" cy="248.01" rx="2.85" ry="2.82"/><ellipse class="cls-110" cx="227.7" cy="248.01" rx="2.85" ry="2.82"/><circle class="cls-47" cx="292.53" cy="233.13" r="4.26"/><circle class="cls-48" cx="292.53" cy="233.13" r="4.26"/><line class="cls-111" x1="205.59" y1="167.66" x2="252.77" y2="159.27"/><line class="cls-112" x1="246.03" y1="177.57" x2="254.05" y2="162.27"/><line class="cls-111" x1="246.03" y1="196.14" x2="269.54" y2="188.43"/><line class="cls-111" x1="247.23" y1="180.55" x2="292.28" y2="171.63"/><line class="cls-112" x1="294.79" y1="203.37" x2="275.55" y2="188.43"/><line class="cls-111" x1="247.23" y1="199.17" x2="265.38" y2="203.88"/><line class="cls-111" x1="252.76" y1="159.27" x2="204.99" y2="189.8"/><line class="cls-112" x1="243" y1="203.43" x2="240.87" y2="222.75"/><line class="cls-112" x1="243.03" y1="184.77" x2="243.03" y2="194.88"/><line class="cls-111" x1="215.49" y1="222.87" x2="236.61" y2="226.98"/><line class="cls-111" x1="203.01" y1="188.97" x2="202.77" y2="170.49"/><line class="cls-112" x1="271.41" y1="209.91" x2="289.54" y2="230.16"/><line class="cls-112" x1="272.67" y1="206.87" x2="293.54" y2="206.37"/><line class="cls-111" x1="214.65" y1="224.85" x2="225.67" y2="245.99"/><circle class="cls-49" cx="305.31" cy="186.09" r="4.26"/><circle class="cls-48" cx="305.31" cy="186.09" r="4.26"/><circle class="cls-51" cx="262.77" cy="249.87" r="2.82"/><circle class="cls-110" cx="262.77" cy="249.87" r="2.82"/><ellipse class="cls-51" cx="186.69" cy="209.76" rx="2.82" ry="2.85"/><ellipse class="cls-110" cx="186.69" cy="209.76" rx="2.82" ry="2.85"/><ellipse class="cls-51" cx="317.34" cy="225.15" rx="2.85" ry="2.82"/><ellipse class="cls-110" cx="317.34" cy="225.15" rx="2.85" ry="2.82"/><circle class="cls-51" cx="202.77" cy="237.75" r="2.82"/><circle class="cls-110" cx="202.77" cy="237.75" r="2.82"/><ellipse class="cls-51" cx="278.79" cy="154.44" rx="2.82" ry="2.85"/><ellipse class="cls-110" cx="278.79" cy="154.44" rx="2.82" ry="2.85"/><circle class="cls-51" cx="308.61" cy="254.31" r="2.82"/><circle class="cls-110" cx="308.61" cy="254.31" r="2.82"/><line class="cls-111" x1="188.73" y1="207.75" x2="201.03" y2="193.77"/><line class="cls-111" x1="247.23" y1="180.55" x2="276.75" y2="156.45"/><line class="cls-112" x1="302.27" y1="183.07" x2="298.29" y2="171.63"/><line class="cls-111" x1="316.38" y1="231.21" x2="308.61" y2="251.45"/><line class="cls-111" x1="268.41" y1="211.11" x2="262.77" y2="247.01"/><g class="cls-4"><text class="cls-97" transform="translate(185.76 148.84)">Co<tspan class="cls-64" x="10.64" y="0">n</tspan><tspan class="cls-62" x="15.49" y="0">cep</tspan><tspan class="cls-64" x="29.24" y="0">t</tspan><tspan x="31.87" y="0">Net</tspan></text></g><polygon class="cls-31" points="185.72 149.66 196.89 149.66 208.07 149.66 219.24 149.66 230.42 149.66 230.42 150.5 219.24 150.5 208.07 150.5 196.89 150.5 185.72 150.5 185.72 149.66"/><g class="cls-4"><text class="cls-33" transform="translate(220.06 158.2)">p<tspan class="cls-44" x="4.44" y="0">l</tspan><tspan x="6.23" y="0">a</tspan><tspan class="cls-79" x="10.67" y="0">y</tspan><tspan x="14.58" y="0">da</tspan><tspan class="cls-105" x="23.45" y="0">t</tspan><tspan class="cls-62" x="25.72" y="0">e</tspan></text></g><g class="cls-4"><text class="cls-33" transform="translate(222.4 185.54)">date</text></g><g class="cls-4"><text class="cls-33" transform="translate(215.46 202.7)">friend</text></g><g class="cls-4"><text class="cls-33" transform="translate(232.68 238.9)">fam<tspan class="cls-52" x="13.3" y="0">i</tspan><tspan class="cls-61" x="15.11" y="0">l</tspan><tspan class="cls-62" x="16.9" y="0">y</tspan></text></g><g class="cls-4"><text class="cls-33" transform="translate(301.96 171.22)">te<tspan class="cls-61" x="6.66" y="0">l</tspan><tspan x="8.44" y="0">l</tspan></text></g><g class="cls-4"><text class="cls-33" transform="translate(308.6 195.58)">order</text></g><g class="cls-4"><text class="cls-81" transform="translate(278.68 244.36)">p<tspan class="cls-89" x="4.45" y="0">r</tspan><tspan x="7.08" y="0">oblem</tspan></text></g><g class="cls-4"><text class="cls-113" transform="translate(251.52 215.58)">w<tspan class="cls-62" x="5.7" y="0">ar</tspan></text></g><g class="cls-4"><text class="cls-81" transform="translate(299.82 216.12)">ease</text></g><g class="cls-4"><text class="cls-33" transform="translate(278.72 187.86)">rest</text></g><line class="cls-111" x1="189.51" y1="263.79" x2="200.74" y2="239.73"/><line class="cls-111" x1="204.75" y1="235.71" x2="210.64" y2="224.85"/><line class="cls-111" x1="216.29" y1="263.79" x2="204.75" y2="239.73"/><line class="cls-111" x1="222.99" y1="263.79" x2="227.67" y2="250.83"/><line class="cls-111" x1="200.79" y1="235.73" x2="188.73" y2="211.77"/><line class="cls-111" x1="180.63" y1="163.47" x2="199.92" y2="167.61"/><line class="cls-111" x1="280.77" y1="152.41" x2="300.57" y2="137.43"/><line class="cls-111" x1="281.61" y1="154.47" x2="336.51" y2="160.55"/><line class="cls-111" x1="259.17" y1="155.28" x2="271.41" y2="137.43"/><line class="cls-111" x1="319.35" y1="223.17" x2="336.52" y2="200.13"/><line class="cls-111" x1="295.53" y1="230.12" x2="314.48" y2="225.15"/><line class="cls-111" x1="310.65" y1="256.29" x2="321.61" y2="263.78"/><line class="cls-111" x1="264.15" y1="252.39" x2="270.9" y2="263.81"/><line class="cls-111" x1="230.55" y1="248.01" x2="259.96" y2="249.87"/><line class="cls-111" x1="265.59" y1="249.87" x2="305.78" y2="254.31"/><line class="cls-111" x1="308.31" y1="183.07" x2="336.51" y2="172.65"/><rect class="cls-114" x="188.34" y="304.5" width="136.32" height="54.42" rx="9.07" ry="9.07"/><g class="cls-4"><text class="cls-115" transform="translate(229.34 335.14)">P<tspan class="cls-83" x="6" y="0">a</tspan><tspan x="10.98" y="0">th Enc</tspan><tspan class="cls-116" x="36.5" y="0">o</tspan><tspan x="41.46" y="0">d</tspan><tspan class="cls-117" x="46.47" y="0">e</tspan><tspan x="51.43" y="0">r</tspan></text></g><rect class="cls-6" x="180.63" y="284.49" width="155.88" height="127.56"/><rect class="cls-91" x="180.63" y="284.49" width="155.88" height="127.56"/><ellipse class="cls-47" cx="197.64" cy="375.63" rx="4.23" ry="4.26"/><ellipse class="cls-48" cx="197.64" cy="375.63" rx="4.23" ry="4.26"/><g class="cls-4"><text class="cls-33" transform="translate(184.7 394)">p<tspan class="cls-44" x="4.44" y="0">l</tspan><tspan x="6.23" y="0">a</tspan><tspan class="cls-79" x="10.67" y="0">y</tspan><tspan x="14.58" y="0">da</tspan><tspan class="cls-105" x="23.45" y="0">t</tspan><tspan class="cls-62" x="25.72" y="0">e</tspan></text></g><circle class="cls-51" cx="223.11" cy="375.39" r="4.26"/><circle class="cls-48" cx="223.11" cy="375.39" r="4.26"/><g class="cls-4"><text class="cls-33" transform="translate(216.98 394.14)">date</text></g><ellipse class="cls-51" cx="248.22" cy="375.33" rx="4.23" ry="4.26"/><ellipse class="cls-48" cx="248.22" cy="375.33" rx="4.23" ry="4.26"/><g class="cls-4"><text class="cls-33" transform="translate(240.92 393.96)">friend</text></g><ellipse class="cls-49" cx="272.64" cy="375.33" rx="4.23" ry="4.26"/><ellipse class="cls-48" cx="272.64" cy="375.33" rx="4.23" ry="4.26"/><g class="cls-4"><text class="cls-33" transform="translate(264.52 393.96)">fam<tspan class="cls-52" x="13.3" y="0">i</tspan><tspan class="cls-61" x="15.11" y="0">l</tspan><tspan class="cls-62" x="16.9" y="0">y</tspan></text></g><g class="cls-4"><text class="cls-33" transform="translate(203.2 423.74)">(d<tspan class="cls-104" x="7.1" y="0">)</tspan><tspan class="cls-105" x="9.72" y="0"> </tspan><tspan x="11.99" y="0">Kno</tspan><tspan class="cls-118" x="26.19" y="0">w</tspan><tspan class="cls-44" x="31.92" y="0">l</tspan><tspan x="33.7" y="0">e</tspan><tspan class="cls-119" x="38.14" y="0">dg</tspan><tspan x="47.11" y="0">e</tspan><tspan class="cls-107" x="51.55" y="0"> </tspan><tspan class="cls-68" x="54.06" y="0">Pat</tspan><tspan class="cls-108" x="66.04" y="0">h</tspan><tspan class="cls-59" x="70.49" y="0">s</tspan><tspan class="cls-80" x="74.5" y="0"> </tspan><tspan x="76.9" y="0">En</tspan><tspan class="cls-73" x="86.66" y="0">c</tspan><tspan x="90.69" y="0">od</tspan><tspan class="cls-61" x="99.56" y="0">i</tspan><tspan x="101.35" y="0">ng</tspan></text></g><rect class="cls-5" x="196.14" y="344.82" width="121.62" height="10.5" rx="1.75" ry="1.75"/><g class="cls-4"><text class="cls-120" transform="translate(238.94 352.34)">Nu<tspan class="cls-121" x="7.67" y="0">m</tspan><tspan class="cls-122" x="12.71" y="0">be</tspan><tspan x="19.41" y="0">rb</tspan><tspan class="cls-123" x="24.74" y="0">a</tspan><tspan x="28.1" y="0">tch</tspan></text></g><rect class="cls-114" x="289.44" y="291" width="34.2" height="7.92"/><ellipse class="cls-5" cx="319.65" cy="294.6" rx="2.85" ry="2.82"/><ellipse class="cls-5" cx="313.08" cy="294.87" rx="2.82" ry="2.85"/><ellipse class="cls-5" cx="306.54" cy="294.87" rx="2.82" ry="2.85"/><ellipse class="cls-5" cx="300" cy="295.05" rx="2.82" ry="2.85"/><circle class="cls-5" cx="293.67" cy="295.05" r="2.85"/><path class="cls-124" d="M335.08,299.86l-3-6-3,6Zm-2.5,99,.25-100h-1.5l-.25,100Z" transform="translate(0 0)"/><circle class="cls-47" cx="295.89" cy="374.97" r="4.26" transform="translate(-35.51 30.98) rotate(-5.65)"/><circle class="cls-48" cx="295.89" cy="374.97" r="4.26" transform="translate(-35.51 30.98) rotate(-5.65)"/><g class="cls-4"><text class="cls-33" transform="translate(291.8 394.14)">te<tspan class="cls-61" x="6.66" y="0">l</tspan><tspan x="8.44" y="0">l</tspan></text></g><circle class="cls-49" cx="317.01" cy="374.61" r="4.26" transform="translate(-67.94 678.98) rotate(-88.09)"/><circle class="cls-48" cx="317.01" cy="374.61" r="4.26" transform="translate(-67.94 678.98) rotate(-88.09)"/><g class="cls-4"><text class="cls-33" transform="translate(314.38 393.96)">...</text></g><rect class="cls-125" x="224.61" y="8.37" width="111.24" height="122.04"/></g></svg>